<svg width="1400.0000000000002" height="500" xmlns="http://www.w3.org/2000/svg">
 <metadata id="metadata8">image/svg+xml</metadata>
 <defs>
  <clipPath id="clipPath18" clipPathUnits="userSpaceOnUse">
   <path id="path16" d="m-202.84256,889.78796l612.00238,0l0,-792.00081l-612.00238,0l0,792.00081z"/>
  </clipPath>
  <clipPath id="clipPath110" clipPathUnits="userSpaceOnUse">
   <path id="path108" d="m0,792l612,0l0,-792l-612,0l0,792z"/>
  </clipPath>
 </defs>
 <g>
  <title>background</title>
  <rect x="-1" y="-1" width="1402" height="502" id="canvas_background" fill="none"/>
 </g>
 <g>
  <title>Layer 1</title>
  <g id="g12" transform="matrix(1.08111, 0, 0, -0.862237, 142.702, 789.123)">
   <g clip-path="url(#clipPath18)" id="g14">
    <g id="g20">
     <path id="path22" d="m294.26471,441.88174c0,4.67499 -61.47253,8.46301 -137.29752,8.46301c-75.82887,0 -137.29941,-3.78802 -137.29941,-8.46301c0,-4.672 61.47055,-8.46399 137.29941,-8.46399c75.82498,0 137.29752,3.79199 137.29752,8.46399" fill-rule="nonzero" fill="#e7e8e9"/>
    </g>
    <g id="g24">
     <path id="path26" d="m55.87137,711.77728l33.85488,-90.74799c0,0 7.99597,36.20599 3.29299,53.133c-4.70299,16.92798 -19.74993,32.91199 -37.14787,37.61499" fill-rule="nonzero" fill="#f15a29"/>
    </g>
    <g id="g28">
     <path id="path30" d="m102.89219,527.92889l19.64693,-54.00525c0,0 -34.69488,7.92401 -31.40189,29.556c3.29198,21.6282 11.75497,24.44925 11.75497,24.44925" fill-rule="nonzero" fill="#262261"/>
    </g>
    <g id="g32">
     <path id="path34" d="m112.76614,531.69116l26.79993,-71.47131l-9.87399,-4.233l-26.79989,70.06223l9.87395,5.64209z" fill-rule="nonzero" fill="#2a3890"/>
    </g>
    <g id="g36">
     <path id="path38" d="m123.58251,534.04175l26.80097,-68.64929l-10.81799,-5.173l-26.79895,71.47128l10.81597,2.35101z" fill-rule="nonzero" fill="#1b75bc"/>
    </g>
    <g id="g40">
     <path id="path42" d="m134.8667,541.5658l-11.75898,-5.1731l27.27598,-71.00037l11.284,10.815l7.05301,21.15799l-0.94202,20.68912l-13.63898,16.92719l-19.27301,6.58417z" fill-rule="nonzero" fill="#00aeef"/>
    </g>
    <g id="g44">
     <path id="path46" d="m55.87137,711.77728l31.97287,-85.57501l-4.58397,-19.04401l-40.78882,105.67804l13.39992,-1.05902z" fill-rule="nonzero" fill="#fbb03f"/>
    </g>
    <g id="g48">
     <path id="path50" d="m42.11809,714.59845l41.02579,-104.97101l-9.87399,-7.40503l-41.37873,108.14502l10.22692,4.23102z" fill-rule="nonzero" fill="#8cc63f"/>
    </g>
    <g id="g52">
     <path id="path54" d="m31.89156,710.36707l26.80078,-71.23499l-25.03778,-3.87903l-22.56778,17.28003l-2.821,29.26996c0,0 14.81087,24.33203 23.62578,28.56403" fill-rule="nonzero" fill="#d7df23"/>
    </g>
    <g id="g56">
     <path id="path58" d="m31.89156,710.36707l26.80078,-71.23499l-25.03778,-3.87903l-22.56778,17.28003l-2.821,29.26996c0,0 14.81087,24.33203 23.62578,28.56403z" stroke-miterlimit="4" stroke="#231f20" fill="none"/>
    </g>
    <g id="g60">
     <path id="path62" d="m80.78625,603.72882c20.29293,22.38904 38.08885,39.40106 8.49396,87.02203c-1.62298,2.29498 -3.92998,5.34497 -6.78595,8.698c-2.703,2.89001 -5.56499,5.59802 -8.59396,8.05798c-12.27898,9.92999 -27.14989,15.258 -41.59274,12.966c-13.97286,-2.23199 -26.83675,-10.66797 -33.97567,-23.74896c-6.75993,-12.37305 -7.09092,-27.427 -1.65198,-41.35901c1.62,-3.53802 3.58197,-7.44403 6.27794,-11.33405c0.51599,-0.65594 1.03998,-1.29498 1.59,-1.92395c2.68096,-3.02405 5.73295,-5.64203 8.9769,-7.85699c7.03093,-4.80505 15.08587,-7.85303 23.07577,-8.45801c15.63785,-1.19604 29.94181,8.58398 35.92577,23.72699c1.491,3.77399 2.44701,7.84601 2.79299,12.05096c0.14401,1.70105 0.55502,0.45105 -0.75699,1.89502c-1.10799,1.20099 -8.01697,15.80798 -7.40497,14.28198c3.52498,-8.81598 3.52797,-15.56598 3.05798,-17.604c-0.41699,-1.81299 -0.952,-3.58197 -1.63998,-5.25098c-1.355,-3.31201 -3.31398,-6.27698 -5.88999,-8.508c-9.60995,-8.32599 -24.6308,-5.58301 -34.7417,3.29199c-1.88201,1.50403 -3.46895,3.29498 -4.79396,5.229c-0.36801,0.49603 -0.74799,0.97803 -1.08801,1.49603c0.03101,0.01599 0.05801,0.03296 0.086,0.04895c-1.28198,2.14703 -2.25997,4.39996 -2.99795,6.58502c-0.02103,-0.01404 -0.04901,-0.02997 -0.073,-0.04407c-5.49797,16.44806 0.29898,33.18207 13.12988,41.23303c8.7449,5.47998 19.59582,5.88995 29.55775,2.23999c15.43893,-3.84705 23.80789,-20.63104 25.59292,-24.88702c2.17797,-5.19397 4.24696,-12.8219 4.24696,-24.34094c-3.75996,-31.50397 -2.92998,-55.74103 -26.8009,-65.59198" fill-rule="nonzero" fill="#000000"/>
    </g>
    <g id="g64">
     <path id="path66" d="m175.90088,516.27393c-2.23199,13.97516 -10.668,26.83533 -23.75,33.9765c-12.37601,6.76208 -27.42799,7.08905 -41.35894,1.65002c-3.53798,-1.61804 -7.44495,-3.58105 -11.33395,-6.27911c-0.65701,-0.51202 -1.29598,-1.03705 -1.924,-1.58606c-3.02498,-2.685 -5.64198,-5.73608 -7.85696,-8.97711c-4.80598,-7.03412 -7.85297,-15.08624 -8.45898,-23.07935c-1.19595,-15.63599 8.58499,-29.939 23.72593,-35.922c3.77498,-1.495 7.84796,-2.44998 12.05397,-2.79401c1.70202,-0.14499 4.09798,-0.65097 5.54197,0.66101c1.202,1.103 1.03598,2.88699 -0.52301,3.40802c-1.93398,0.642 -4.40696,0.565 -6.44797,1.03299c-1.814,0.41501 -3.58199,0.95099 -5.252,1.63901c-3.31093,1.35599 -6.27494,3.314 -8.50696,5.88998c-8.32697,9.61301 -5.58198,24.633 3.29299,34.7421c1.50298,1.88208 3.29402,3.46808 5.22898,4.79608c0.495,0.36603 0.97699,0.74902 1.49499,1.086c0.017,-0.02795 0.03302,-0.05603 0.04999,-0.08301c2.14504,1.27905 4.39903,2.25903 6.58604,2.99512c-0.01703,0.02399 -0.03302,0.04999 -0.04404,0.07495c16.44796,5.49908 33.182,-0.29797 41.23196,-13.13116c5.478,-8.74509 5.89099,-19.59711 2.23599,-29.55606c-3.84399,-15.44 -20.629,-23.80899 -24.88199,-25.59601c-5.19699,-2.17502 -5.82501,-2.20599 -9.781,-3.08499c-27.26488,-7.92905 -57.2168,2.72195 -67.07076,26.59198c-12.28191,29.78802 18.88194,77.70074 25.04995,88.89789c6.16596,11.19702 11.53493,20.88403 13.71196,25.98303c2.21697,5.73602 3.99998,11.58301 5.25297,17.48499c3.36696,15.88501 3.256,32.78406 -2.066,47.63403c-2.49801,6.99298 -6.12797,13.65997 -10.35094,19.953l-1.24801,-13.48901c4.93998,-20.48102 -4.57597,-43.828 -17.10892,-62.04901c-0.02405,0.04102 -0.05106,0.08099 -0.07501,0.12097c-1.85601,-3.23999 -3.90303,-6.71497 -6.04597,-10.30499c-0.66202,-1.16199 -1.32601,-2.32495 -1.99001,-3.48999c-8.15497,-14.26398 -16.28192,-28.65106 -22.04588,-43.7373c-5.63091,-14.77222 -8.9039,-30.43848 -6.2219,-45.40961c2.63594,-14.74197 10.88387,-28.319 22.13981,-38.52701c22.38892,-20.297 57.6698,-26.08801 87.02275,-8.49701c2.29199,1.62701 5.34598,3.92999 8.69598,6.789c2.89301,2.69901 5.59702,5.56201 8.06,8.591c9.92999,12.27899 15.259,27.14999 12.96701,41.59506" fill-rule="nonzero" fill="#000000"/>
    </g>
    <g id="g68">
     <path id="path70" d="m78.59046,592.39197l-53.78463,139.58899c-0.98099,-0.06097 -1.95098,-0.16901 -2.923,-0.25696l54.78963,-142.19806c0.62201,0.95404 1.26199,1.91302 1.918,2.86603" fill-rule="nonzero" fill="#231f20"/>
    </g>
    <g id="g72">
     <path id="path74" d="m78.59046,592.39197l-53.78463,139.58899c-0.98099,-0.06097 -1.95098,-0.16901 -2.923,-0.25696l54.78963,-142.19806c0.62201,0.95404 1.26199,1.91302 1.918,2.86603z" stroke-miterlimit="4" stroke-width="2" stroke="#231f20" fill="none"/>
    </g>
    <g id="g76">
     <path id="path78" d="m87.98694,603.05695l-49.71375,129.02301c-1.01797,0.04401 -2.03698,0.08203 -3.06096,0.099l50.73971,-131.68597c0.668,0.85901 1.34899,1.71198 2.035,2.56396" fill-rule="nonzero" fill="#231f20"/>
    </g>
    <g id="g80">
     <path id="path82" d="m87.98694,603.05695l-49.71375,129.02301c-1.01797,0.04401 -2.03698,0.08203 -3.06096,0.099l50.73971,-131.68597c0.668,0.85901 1.34899,1.71198 2.035,2.56396z" stroke-miterlimit="4" stroke="#231f20" fill="none"/>
    </g>
    <g id="g84">
     <path id="path86" d="m94.91322,612.81335l-45.47084,118.01501c-1.07199,0.16901 -2.13299,0.37 -3.21795,0.50696l46.57979,-120.89697c0.70199,0.79901 1.40499,1.59198 2.109,2.375" fill-rule="nonzero" fill="#231f20"/>
    </g>
    <g id="g88">
     <path id="path90" d="m39.8876,757.38757c0,-9.34802 -7.57791,-16.927 -16.92783,-16.927c-9.34892,0 -16.92683,7.57898 -16.92683,16.927c0,9.34802 7.57792,16.927 16.92683,16.927c9.34992,0 16.92783,-7.57898 16.92783,-16.927" fill-rule="nonzero" fill="#231f20"/>
    </g>
    <g id="g92">
     <path id="path94" d="m164.96237,424.48624c0,-7.53 -6.10501,-13.63501 -13.63699,-13.63501c-7.52701,0 -13.63202,6.10501 -13.63202,13.63501c0,7.53 6.10501,13.63501 13.63202,13.63501c7.53198,0 13.63699,-6.10501 13.63699,-13.63501" fill-rule="nonzero" fill="#231f20"/>
    </g>
   </g>
  </g>
  <text id="text98" transform="matrix(1.40196, 0, 0, 1.70175, -24.8348, 859.937)" fill-rule="nonzero" fill="#662c91" font-family="'Trajan Pro'" font-size="133.8604px" font-weight="normal" y="-325.95047" x="277.81528">MUSIKA</text>
  <text id="text102" transform="matrix(1.33333, 0, 0, 1.33333, 227.479, 827.066)" fill-rule="nonzero" fill="#00aeef" font-family="'Century Gothic'" font-size="43.5515px" font-weight="normal" y="-325.23875" x="108.5705">Discover the musing in you</text>
  <g id="g104" transform="matrix(0.712654, 0, 0, -0.60489, 198.765, 662.34)">
   <g id="g112">
    <path id="path114" d="m162.56297,694.95056l-42.17126,-9.16602l0,-49.85016c-1.64201,1.047 -3.58005,1.66302 -5.67506,1.66302c-5.82404,0 -10.54105,-4.7171 -10.54105,-10.53717c0,-5.82501 4.71701,-10.5451 10.54105,-10.5451c5.82506,0 10.54707,4.72009 10.54707,10.5451l0,54.80133l32.43323,7.052l0,-38.78809c-1.63802,1.05005 -3.58704,1.67004 -5.67604,1.67004c-5.82404,0 -10.54108,-4.72607 -10.54108,-10.54413c0,-5.82202 4.71704,-10.5451 10.54108,-10.5451c5.82503,0 10.54207,4.72308 10.54207,10.5451c0,0.13403 -0.01801,0.26904 -0.01801,0.40204l0.01801,0l0,53.29712z" fill-rule="nonzero" fill="#231f20"/>
   </g>
   <g id="g116">
    <path id="path118" d="m190.54747,668.36365l0,-40.02228c-1.32199,0.84003 -2.87602,1.33502 -4.56204,1.33502c-4.673,0 -8.46202,-3.78503 -8.46202,-8.46008c0,-4.67505 3.78902,-8.46307 8.46202,-8.46307c4.67905,0 8.47009,3.78802 8.47009,8.46307l0,43.99933" fill-rule="nonzero" fill="#231f20"/>
   </g>
   <g id="g120">
    <path id="path122" d="m193.04462,659.68054l-1.41104,2.82098c0,0 -2.82602,7.052 0.93704,7.052c3.76407,0 12.7012,-11.284 22.57538,0.47198c0,0 -10.81718,-20.69 -22.10138,-10.34497" fill-rule="nonzero" fill="#231f20"/>
   </g>
  </g>
 </g>
</svg>