<svg xmlns="http://www.w3.org/2000/svg" viewBox="0 0 515.496 505.422">
  <defs>
    <style>
      .cls-1 {
        fill: #e0e1e3;
      }

      .cls-2 {
        fill: #ec411b;
      }

      .cls-3 {
        fill: #121a50;
      }

      .cls-4 {
        fill: #002b7f;
      }

      .cls-5 {
        fill: #0063b0;
      }

      .cls-6 {
        fill: #00a1ed;
      }

      .cls-7 {
        fill: #fe9d2b;
      }

      .cls-8 {
        fill: #8abb2a;
      }

      .cls-9 {
        fill: #dad800;
      }

      .cls-11, .cls-12, .cls-9 {
        stroke: #1a1818;
      }

      .cls-10 {
        fill: #040505;
      }

      .cls-11, .cls-12, .cls-13 {
        fill: #1a1818;
      }

      .cls-11 {
        stroke-width: 2px;
      }

      .cls-14 {
        fill: #482080;
      }
    </style>
  </defs>
  <g id="Group_4" data-name="Group 4" transform="translate(-42.143 -115.473)">
    <path id="Path_1" data-name="Path 1" class="cls-1" d="M494.964,447.9c0-4.675-61.471-8.463-137.3-8.463s-137.3,3.788-137.3,8.463,61.471,8.464,137.3,8.464S494.964,452.577,494.964,447.9Z"/>
    <path id="Path_2" data-name="Path 2" class="cls-2" d="M256.572,178.011l33.855,90.748s7.995-36.207,3.293-53.133S273.97,182.713,256.572,178.011Z"/>
    <path id="Path_3" data-name="Path 3" class="cls-3" d="M303.593,361.858l19.647,54.005s-34.695-7.923-31.4-29.556S303.593,361.858,303.593,361.858Z"/>
    <path id="Path_4" data-name="Path 4" class="cls-4" d="M313.467,358.1l26.8,71.471-9.874,4.232-26.8-70.061Z"/>
    <path id="Path_5" data-name="Path 5" class="cls-5" d="M324.283,355.746l26.8,68.649-10.817,5.173-26.8-71.471Z"/>
    <path id="Path_6" data-name="Path 6" class="cls-6" d="M335.567,348.222l-11.759,5.173,27.275,71,11.284-10.814,7.054-21.159-.942-20.688-13.639-16.927Z"/>
    <path id="Path_7" data-name="Path 7" class="cls-7" d="M256.572,178.011l31.973,85.575-4.585,19.043L243.172,176.952Z"/>
    <path id="Path_8" data-name="Path 8" class="cls-8" d="M242.818,175.189,283.845,280.16l-9.875,7.406L232.592,179.421Z"/>
    <path id="Path_9" data-name="Path 9" class="cls-9" d="M232.592,179.421l26.8,71.235-25.038,3.879-22.568-17.28-2.822-29.27S223.776,183.653,232.592,179.421Z"/>
    <path id="Path_10" data-name="Path 10" class="cls-10" d="M281.487,286.059c20.293-22.389,38.089-39.4,8.493-87.022-1.623-2.295-3.929-5.345-6.785-8.7a86.415,86.415,0,0,0-8.594-8.058c-12.279-9.929-27.15-15.258-41.593-12.966a47.119,47.119,0,0,0-33.976,23.749c-6.761,12.374-7.091,27.427-1.652,41.359a72.585,72.585,0,0,0,6.278,11.334c.515.656,1.04,1.295,1.59,1.924a48.574,48.574,0,0,0,8.977,7.857A47.9,47.9,0,0,0,237.3,264c15.638,1.2,29.942-8.584,35.926-23.727a42.25,42.25,0,0,0,2.792-12.051c.145-1.7.556-.451-.756-1.9-1.108-1.2-8.017-15.808-7.4-14.282,3.525,8.816,3.528,15.566,3.057,17.6a33.293,33.293,0,0,1-1.64,5.251,22.329,22.329,0,0,1-5.889,8.508c-9.611,8.326-24.631,5.583-34.742-3.292a24.055,24.055,0,0,1-4.794-5.229c-.369-.5-.748-.978-1.088-1.5.03-.016.058-.033.086-.049a34.24,34.24,0,0,1-3-6.585c-.021.014-.049.03-.074.044-5.5-16.448.3-33.182,13.131-41.232,8.744-5.481,19.6-5.891,29.558-2.241,15.439,3.847,23.807,20.631,25.593,24.887,2.178,5.194,4.247,12.822,4.247,24.341-3.76,31.5-2.93,55.741-26.8,65.593"/>
    <path id="Path_11" data-name="Path 11" class="cls-10" d="M376.6,373.513a47.122,47.122,0,0,0-23.75-33.976c-12.376-6.762-27.428-7.089-41.36-1.65a72.27,72.27,0,0,0-11.334,6.279c-.657.512-1.3,1.038-1.923,1.586a48.78,48.78,0,0,0-7.858,8.978,47.909,47.909,0,0,0-8.459,23.079c-1.2,15.635,8.585,29.938,23.727,35.921a42.065,42.065,0,0,0,12.053,2.794c1.7.145,4.1.651,5.542-.661a1.934,1.934,0,0,0-.522-3.408c-1.935-.641-4.408-.564-6.449-1.033a33.153,33.153,0,0,1-5.251-1.639,22.386,22.386,0,0,1-8.508-5.889c-8.326-9.614-5.582-24.634,3.293-34.743a24.165,24.165,0,0,1,5.229-4.8c.495-.366.978-.749,1.495-1.085.018.027.033.055.05.082a34.238,34.238,0,0,1,6.586-2.995.526.526,0,0,1-.044-.075c16.448-5.5,33.183.3,41.233,13.131,5.477,8.745,5.89,19.6,2.236,29.556-3.845,15.44-20.629,23.809-24.883,25.6a40.207,40.207,0,0,1-9.78,3.085c-27.266,7.929-57.217-2.722-67.072-26.591-12.282-29.789,18.882-77.7,25.05-88.9s11.535-20.884,13.712-25.983a114.607,114.607,0,0,0,5.254-17.485c3.366-15.885,3.256-32.784-2.067-47.634a91.208,91.208,0,0,0-10.351-19.953L291.2,218.6c4.941,20.481-4.576,43.828-17.108,62.05-.025-.042-.051-.082-.076-.122-1.855,3.241-3.9,6.715-6.046,10.3q-.991,1.743-1.989,3.49c-8.156,14.264-16.283,28.651-22.047,43.737-5.631,14.773-8.9,30.439-6.221,45.409,2.635,14.742,10.883,28.319,22.139,38.527a73.547,73.547,0,0,0,87.024,8.5c2.292-1.627,5.346-3.929,8.7-6.789a85.758,85.758,0,0,0,8.061-8.591C373.564,402.829,378.894,387.958,376.6,373.513Z"/>
    <g id="Group_1" data-name="Group 1">
      <path id="Path_12" data-name="Path 12" class="cls-11" d="M279.291,297.4,225.506,157.807c-.981.061-1.951.169-2.923.257l54.79,142.2C277.995,299.308,278.635,298.349,279.291,297.4Z"/>
    </g>
    <g id="Group_2" data-name="Group 2">
      <path id="Path_13" data-name="Path 13" class="cls-12" d="M288.687,286.731,238.974,157.708c-1.018-.044-2.038-.082-3.061-.1L286.652,289.3C287.321,288.436,288,287.583,288.687,286.731Z"/>
    </g>
    <g id="Group_3" data-name="Group 3">
      <path id="Path_14" data-name="Path 14" class="cls-13" d="M295.614,276.975,250.143,158.959c-1.072-.168-2.133-.369-3.218-.507L293.5,279.35Q294.559,278.151,295.614,276.975Z"/>
    </g>
    <path id="Path_15" data-name="Path 15" class="cls-13" d="M240.588,132.4a16.927,16.927,0,1,1-16.928-16.927A16.928,16.928,0,0,1,240.588,132.4Z"/>
    <path id="Path_16" data-name="Path 16" class="cls-13" d="M365.663,465.3a13.634,13.634,0,1,1-13.637-13.635A13.635,13.635,0,0,1,365.663,465.3Z"/>
    <path id="Path_25" data-name="Path 25" class="cls-14" d="M100.931-84.2q-.4-3.079-1.74-3.079-.937,0-1.874,1.874L63.048-14.859,27.441-85.537a2.756,2.756,0,0,0-2.409-1.74q-1.071,0-1.339,2.008L15.126-10.977q-.4,3.213-1,5.89a4.016,4.016,0,0,1-3.547,3.213q-1.339.268-2.075.335t-1.406.067q-1.2,0-1.2.8Q5.89.4,7.9.4,9.1.4,10.642.335L13.654.2q1.472-.067,2.61-.134T17.8,0q.4,0,1.539.067T22.02.2q1.539.067,3.347.134T28.78.4q2.142,0,2.142-1.071,0-.8-.937-.8a18.131,18.131,0,0,1-1.874-.134,17.714,17.714,0,0,1-2.677-.535q-2.811-.669-2.811-3.213V-8.3q0-1.472.134-2.811l4.551-51.4h.535q.8,1.74,2.744,5.823T34.8-47.922q2.276,4.685,4.484,9.236t3.547,7.228q1.071,2.276,2.945,5.89t3.882,7.5q2.008,3.882,3.882,7.362t3.079,5.622q1.74,3.079,2.476,4.15A1.994,1.994,0,0,0,60.639.134q.8,0,1.539-1.138t2.61-4.886l28.378-58.1h.268l5.622,57.56a9.947,9.947,0,0,1,.134,2.744q-.134,1.138-.669,1.272-.8.268-.8.937,0,.4.6.669a12.333,12.333,0,0,0,2.744.535q1.606.134,4.551.268t6.091.2q3.146.067,5.756.134T121.144.4a4.752,4.752,0,0,0,1.74-.268q.669-.268.669-.8,0-.8-.937-.8T119.6-1.606a19.722,19.722,0,0,1-4.618-.937,5.465,5.465,0,0,1-2.945-1.941,13.052,13.052,0,0,1-1.74-3.079,15.425,15.425,0,0,1-.937-3.48q-.268-1.807-.4-3.28Zm37.749,48.19a65.748,65.748,0,0,0,.8,10.977,39.9,39.9,0,0,0,2.209,8.165,29.059,29.059,0,0,0,3.28,6.091,31.412,31.412,0,0,0,4.016,4.618,23.127,23.127,0,0,0,6.76,4.551A41,41,0,0,0,162.908.8a35.849,35.849,0,0,0,6.291.937q2.811.134,4.284.134,2.543,0,5.555-.268A34.573,34.573,0,0,0,185.2.469a37.162,37.162,0,0,0,6.425-2.476,29.909,29.909,0,0,0,6.492-4.417,23.566,23.566,0,0,0,5.622-6.961,40.115,40.115,0,0,0,3.346-8.5,52.6,52.6,0,0,0,1.606-9.236q.4-4.752.4-9.437V-74.293q0-1.606.134-2.945a12.571,12.571,0,0,1,1-4.284,4.277,4.277,0,0,1,3.146-2.008,7.323,7.323,0,0,1,1.606-.268h1.339a.828.828,0,0,0,.937-.937q0-.937-1.874-.937-2.677,0-5.957.134t-3.949.134q-.268,0-1.539-.067t-3.146-.067q-1.74,0-3.882-.067t-4.15-.067q-1.874,0-1.874.937a.828.828,0,0,0,.937.937q.8,0,2.075.067a14.486,14.486,0,0,1,1.941.2q2.945.4,3.748,2.008a10.888,10.888,0,0,1,.937,4.284q0,1.339.067,2.878t.134,4.15q.067,2.61.067,6.76v25.032a87.319,87.319,0,0,1-1.272,15.729A25.2,25.2,0,0,1,194.1-10.843a22.5,22.5,0,0,1-7.9,5.823,24.443,24.443,0,0,1-10.307,2.209,34.157,34.157,0,0,1-9.169-1.138,21.3,21.3,0,0,1-8.366-5.02,27.186,27.186,0,0,1-3.48-3.949,21,21,0,0,1-2.744-5.488,43.454,43.454,0,0,1-1.807-7.764,73.212,73.212,0,0,1-.669-10.642V-70.143q0-2.677.067-4.217t.2-2.878a13.3,13.3,0,0,1,1-4.35,3.781,3.781,0,0,1,3.012-1.941,7.323,7.323,0,0,1,1.606-.268h1.339q1.071,0,1.071-.937t-2.008-.937q-1.339,0-3.213.067t-3.748.067q-1.74,0-3.146.067t-1.807.067q-.4,0-1.807-.067t-3.413-.067q-1.874,0-4.083-.067t-4.217-.067q-1.874,0-1.874.937a.828.828,0,0,0,.937.937q.8,0,2.075.067a14.486,14.486,0,0,1,1.941.2q2.945.4,3.748,2.008a12.477,12.477,0,0,1,1.071,4.284q.134,1.339.2,2.878t.067,4.217v34.134ZM249.917,1.874a63.482,63.482,0,0,0,9.906-.8,22.678,22.678,0,0,0,8.835-3.213q6.291-4.15,8.634-9.236a24.141,24.141,0,0,0,2.343-10.173,24.777,24.777,0,0,0-1-7.028,23.261,23.261,0,0,0-3.28-6.693,41.754,41.754,0,0,0-5.957-6.693,75.219,75.219,0,0,0-9.036-7.028l-3.346-2.276q-4.417-2.945-7.3-5.287a32.751,32.751,0,0,1-4.685-4.551,13.87,13.87,0,0,1-2.543-4.484,16.009,16.009,0,0,1-.736-4.953,10.4,10.4,0,0,1,4.618-9.169,19.141,19.141,0,0,1,11.043-3.146,29.029,29.029,0,0,1,6.76.669,20.57,20.57,0,0,1,4.551,1.606,11.182,11.182,0,0,1,2.744,1.874,6.643,6.643,0,0,1,1.2,1.472,13.5,13.5,0,0,1,1.071,2.744,19.12,19.12,0,0,1,.669,2.878,9.261,9.261,0,0,0,.268,1.071q.134.4.8.4.937,0,.937-2.543,0-5.89.268-8.768t.268-3.28q0-.8-1.2-.8-.669,0-1.539-.067a19.443,19.443,0,0,1-2.61-.469,46.047,46.047,0,0,0-5.421-.937,55.589,55.589,0,0,0-6.76-.4,35.88,35.88,0,0,0-10.642,1.472,25.184,25.184,0,0,0-8.232,4.217,18.405,18.405,0,0,0-5.354,6.76,20.953,20.953,0,0,0-1.874,8.969A21.1,21.1,0,0,0,237-54.414q3.681,5.689,13.185,12.784l5.354,4.016q3.882,2.945,6.693,5.221a31.776,31.776,0,0,1,4.618,4.484,15.735,15.735,0,0,1,2.677,4.618,16.1,16.1,0,0,1,.87,5.488,14.521,14.521,0,0,1-4.417,10.776q-4.417,4.35-13.252,4.35a30.317,30.317,0,0,1-5.957-.6,21.489,21.489,0,0,1-5.622-1.941,14.972,14.972,0,0,1-4.484-3.48,11.469,11.469,0,0,1-2.543-5.221,14.807,14.807,0,0,1-.335-2.343q-.067-1.138-.067-1.807,0-1.339-1.071-1.339-.937,0-.937,1.874-.134,1.472-.4,4.618t-.268,7.429a9.917,9.917,0,0,0,.268,2.945A3.13,3.13,0,0,0,232.783-1.2a28.257,28.257,0,0,0,8.3,2.409A62.617,62.617,0,0,0,249.917,1.874Zm73.623-54.615v-17.4q0-2.677.067-4.217t.067-2.878a11.914,11.914,0,0,1,1-4.417,4.451,4.451,0,0,1,3.146-1.874,7.323,7.323,0,0,1,1.606-.268h1.339a.828.828,0,0,0,.937-.937q0-.937-1.874-.937-1.339,0-3.28.067t-3.815.067q-1.74,0-3.146.067t-1.539.067q-.268,0-1.606-.067t-3.213-.067q-1.74,0-3.681-.067t-3.413-.067q-1.874,0-1.874.937a.828.828,0,0,0,.937.937q.669,0,1.606.067a11.772,11.772,0,0,1,2.008.335,3.815,3.815,0,0,1,2.677,1.807,11.158,11.158,0,0,1,1.071,4.35q.134,1.339.2,2.878t.067,4.217v37.481q0,8.3-.134,14.725t-.535,9.906a18.786,18.786,0,0,1-.8,4.083,2.919,2.919,0,0,1-2.276,1.941,9.836,9.836,0,0,1-1.807.4,13.8,13.8,0,0,1-1.807.134.828.828,0,0,0-.937.937q0,.937,1.874.937,1.339,0,3.213-.067L313.3.2q1.807-.067,3.146-.134T318.052,0q.134,0,1.539.067T323.139.2q2.142.067,4.685.134T332.777.4q1.874,0,1.874-.937a.828.828,0,0,0-.937-.937q-.8,0-2.409-.134a26.141,26.141,0,0,1-2.945-.4q-2.677-.4-3.347-1.941a14.161,14.161,0,0,1-.937-4.083q-.4-3.48-.469-9.906t-.067-14.725ZM364.9-32.662q0,8.3-.067,14.725a74.625,74.625,0,0,1-.6,9.906,31.325,31.325,0,0,1-.87,4.083,2.761,2.761,0,0,1-2.209,1.941,9.836,9.836,0,0,1-1.807.4,13.8,13.8,0,0,1-1.807.134.828.828,0,0,0-.937.937q0,.937,1.874.937,1.339,0,3.213-.067T365.305.2q1.74-.067,3.079-.134T370.124,0q.4,0,1.74.067T375.211.2q2.008.067,4.284.134T383.912.4q1.874,0,1.874-.937a.828.828,0,0,0-.937-.937,20.64,20.64,0,0,1-2.075-.134,22.046,22.046,0,0,1-2.476-.4q-2.677-.4-3.48-1.941a11.515,11.515,0,0,1-1.071-4.083q-.4-3.48-.469-9.906t-.067-14.725v-11.11h.535q1.339,1.74,4.217,4.819t6.358,6.827q3.48,3.748,7.362,7.764t7.429,7.563q3.547,3.547,6.291,6.225t4.083,3.748q1.874,1.472,3.48,2.677a23.671,23.671,0,0,0,3.28,2.075A23.942,23.942,0,0,0,421.727-.6a15.848,15.848,0,0,0,4.083.736A28.461,28.461,0,0,0,429.558.4H440a5.069,5.069,0,0,0,2.008-.268q.535-.268.535-.669,0-.937-1.472-.937a23.564,23.564,0,0,1-2.811-.335,19.547,19.547,0,0,1-4.417-1.272,23.118,23.118,0,0,1-3.614-1.673q-1.472-.87-3.213-2.142A49.464,49.464,0,0,1,423-10.24q-2.276-2.075-6.024-5.421-1.2-1.071-3.882-3.681t-6.024-5.89q-3.347-3.28-6.961-6.961t-6.827-6.894q-3.213-3.213-5.555-5.622t-3.146-3.213l2.61-2.61,4.484-4.484q2.543-2.543,5.488-5.354t5.622-5.354q2.677-2.543,4.618-4.417t2.744-2.543q3.882-3.748,6.291-5.89a23.14,23.14,0,0,1,6.024-3.748,35.146,35.146,0,0,1,3.48-1.138,12.023,12.023,0,0,1,3.079-.469q1.2,0,1.2-.937,0-.8-1.74-.8-1.071,0-2.878.067t-3.681.067q-1.74,0-3.146.067t-1.673.067q-2.142,0-4.551-.134t-4.284-.134q-1.339,0-1.339.8t1.071,1.071q1.472.268,1.472,2.276,0,1.472-1.941,3.547t-4.484,4.618q-1.071,1.2-3.413,3.48t-5.221,5.154l-5.957,5.957-5.756,5.756-4.618,4.618q-1.941,1.941-2.343,2.476h-.535V-70.143q0-2.677.067-4.217t.2-2.878a10.9,10.9,0,0,1,1.071-4.417,4.6,4.6,0,0,1,3.079-1.874,7.323,7.323,0,0,1,1.606-.268h1.339a.828.828,0,0,0,.937-.937q0-.937-1.874-.937-1.339,0-3.146.067t-3.547.067q-1.74,0-3.146.067t-1.807.067q-.268,0-1.606-.067t-3.346-.067q-1.874,0-4.083-.067t-4.217-.067q-1.874,0-1.874.937a.828.828,0,0,0,.937.937q.8,0,2.075.067a14.485,14.485,0,0,1,1.941.2q2.945.4,3.748,1.874a11.779,11.779,0,0,1,1.071,4.417q.134,1.339.2,2.878t.067,4.217v37.481Zm78.71,20.481A32.665,32.665,0,0,1,439.8-5.087a8.6,8.6,0,0,1-6.091,3.347,13.48,13.48,0,0,1-1.74.2q-1.071.067-1.74.067-1.071,0-1.071.937T431.432.4q1.74,0,3.681-.067T438.727.2Q440.4.134,441.672.067T443.346,0q.535,0,1.807.067T448.031.2l3.213.134Q452.85.4,453.921.4q1.74,0,1.74-.937t-1.2-.937h-1.071a5.8,5.8,0,0,1-2.744-.669,2.48,2.48,0,0,1-1.272-2.409,22.238,22.238,0,0,1,1.74-7.63L457.8-30.386a1.3,1.3,0,0,1,1.2-.937h27.174a1.21,1.21,0,0,1,1.071.669l10.575,26.1q.669,1.472.067,2.142a4.052,4.052,0,0,1-1.138.937,2.934,2.934,0,0,1-.6.335q-.2.067-.2.469,0,.535,1.2.6t2.945.2q3.079.134,6.091.2T511.748.4h6.961a7.78,7.78,0,0,0,1.874-.2q.8-.2.8-.736a.734.734,0,0,0-.469-.736,2.521,2.521,0,0,0-1-.2,19.63,19.63,0,0,1-2.142-.134,14.42,14.42,0,0,1-2.543-.535,11.753,11.753,0,0,1-2.008-.8,8.925,8.925,0,0,1-2.343-1.874A22.335,22.335,0,0,1,508.2-8.433a44.225,44.225,0,0,1-3.012-6.158q-1.874-4.284-4.484-10.776T495.15-39.087q-2.945-7.228-5.957-14.658T483.638-67.4q-2.543-6.225-4.35-10.642t-2.343-5.622q-.937-1.874-1.406-3.012a1.523,1.523,0,0,0-1.406-1.138,1.488,1.488,0,0,0-1.2.8,22.41,22.41,0,0,0-1.606,3.614Zm17-23.827q-.669,0-.4-.8L471.189-68q.937-2.543,2.008,0l11.646,31.189q.134.8-.4.8Z" transform="translate(36.253 576.86)"/>
    <path id="Path_26" data-name="Path 26" class="cls-6" d="M3.3-23.137H6.252v4a11.523,11.523,0,0,1,3.19-3.232,9.036,9.036,0,0,1,4.742-1.361,7.886,7.886,0,0,1,3.19.659,6.858,6.858,0,0,1,2.467,1.754A9.413,9.413,0,0,1,21.5-18.182a11,11,0,0,1,3.721-4.136,8.819,8.819,0,0,1,4.806-1.414,7.533,7.533,0,0,1,4.242,1.212A7.23,7.23,0,0,1,37-19.139a18,18,0,0,1,.893,6.507V0H34.854V-12.632a16.454,16.454,0,0,0-.532-5.114A4.609,4.609,0,0,0,32.5-19.989a5.444,5.444,0,0,0-3.073-.851,6.7,6.7,0,0,0-3.966,1.276,7.345,7.345,0,0,0-2.626,3.4,21.5,21.5,0,0,0-.829,7.1V0H19.054V-11.845a20.323,20.323,0,0,0-.521-5.688,4.763,4.763,0,0,0-1.818-2.4,5.257,5.257,0,0,0-3.083-.9A6.653,6.653,0,0,0,9.771-19.6a7.366,7.366,0,0,0-2.658,3.349A18.054,18.054,0,0,0,6.252-9.8V0H3.3Zm49.2,0h3v10.8a23.087,23.087,0,0,0,.425,5.444,6.069,6.069,0,0,0,2.435,3.36A7.385,7.385,0,0,0,62.639-2.3,7.226,7.226,0,0,0,66.86-3.5a6.146,6.146,0,0,0,2.392-3.158,22.334,22.334,0,0,0,.447-5.678v-10.8H72.74v11.356a17.96,17.96,0,0,1-1.116,7.209,8.527,8.527,0,0,1-3.36,3.8A10.615,10.615,0,0,1,62.639.6,10.729,10.729,0,0,1,56.993-.776,8.459,8.459,0,0,1,53.612-4.6a18.7,18.7,0,0,1-1.116-7.39Zm47.2,2.531-1.914,1.978a6.854,6.854,0,0,0-4.657-2.318,3.514,3.514,0,0,0-2.477.957,2.958,2.958,0,0,0-1.031,2.233,3.312,3.312,0,0,0,.851,2.148,11.951,11.951,0,0,0,3.573,2.446,13.339,13.339,0,0,1,4.508,3.317,6.052,6.052,0,0,1,1.17,3.636,6.532,6.532,0,0,1-2,4.827,6.819,6.819,0,0,1-5,1.978A8.722,8.722,0,0,1,88.9-.276a8.291,8.291,0,0,1-3.009-2.4l1.871-2.127a6.488,6.488,0,0,0,4.827,2.573,4.343,4.343,0,0,0,3.041-1.148,3.551,3.551,0,0,0,1.255-2.7,3.465,3.465,0,0,0-.829-2.275,13.331,13.331,0,0,0-3.743-2.467,12,12,0,0,1-4.253-3.19,6.017,6.017,0,0,1-1.127-3.594,5.85,5.85,0,0,1,1.8-4.381,6.254,6.254,0,0,1,4.54-1.744Q96.464-23.732,99.7-20.606Zm15.026-12.057a2.376,2.376,0,0,1,1.744.723,2.376,2.376,0,0,1,.723,1.744,2.352,2.352,0,0,1-.723,1.722,2.376,2.376,0,0,1-1.744.723A2.352,2.352,0,0,1,113-28.474a2.352,2.352,0,0,1-.723-1.722A2.376,2.376,0,0,1,113-31.941,2.352,2.352,0,0,1,114.722-32.664Zm-1.489,9.527h3V0h-3Zm40.332,4.806-2.36,1.467a9.9,9.9,0,0,0-8.357-4.062A9.669,9.669,0,0,0,135.82-18.2a8.884,8.884,0,0,0-2.8,6.614,9.389,9.389,0,0,0,1.287,4.763,9.018,9.018,0,0,0,3.53,3.466,10.264,10.264,0,0,0,5.029,1.233,10.175,10.175,0,0,0,8.336-4.062l2.36,1.552a11.132,11.132,0,0,1-4.455,3.86A14.278,14.278,0,0,1,142.742.6a12.582,12.582,0,0,1-9.1-3.488,11.346,11.346,0,0,1-3.615-8.485,12.119,12.119,0,0,1,1.691-6.241,11.91,11.91,0,0,1,4.646-4.5,13.556,13.556,0,0,1,6.614-1.616,14.121,14.121,0,0,1,4.434.7,12.329,12.329,0,0,1,3.626,1.829A9.946,9.946,0,0,1,153.566-18.331Zm34.752-13.737h2.977V0h-2.977ZM225.672-7.677l2.509,1.318a13.686,13.686,0,0,1-2.85,3.913A11.316,11.316,0,0,1,221.7-.181,12.673,12.673,0,0,1,217.124.6a11.044,11.044,0,0,1-8.846-3.711,12.526,12.526,0,0,1-3.19-8.389,12.377,12.377,0,0,1,2.7-7.847,11.038,11.038,0,0,1,9.165-4.381,11.4,11.4,0,0,1,9.442,4.487,12.535,12.535,0,0,1,2.552,7.911h-20.8a9.46,9.46,0,0,0,2.573,6.624,8.193,8.193,0,0,0,6.146,2.584,9.835,9.835,0,0,0,3.434-.617,9.019,9.019,0,0,0,2.839-1.637A13.929,13.929,0,0,0,225.672-7.677Zm0-6.231a9.881,9.881,0,0,0-1.733-3.807,8.2,8.2,0,0,0-3.009-2.3A9.207,9.207,0,0,0,217-20.883a8.467,8.467,0,0,0-5.848,2.19,9.9,9.9,0,0,0-2.7,4.785Zm29.168-6.7-1.914,1.978a6.854,6.854,0,0,0-4.657-2.318,3.514,3.514,0,0,0-2.477.957,2.958,2.958,0,0,0-1.031,2.233,3.312,3.312,0,0,0,.851,2.148,11.951,11.951,0,0,0,3.573,2.446,13.339,13.339,0,0,1,4.508,3.317,6.052,6.052,0,0,1,1.17,3.636,6.532,6.532,0,0,1-2,4.827,6.818,6.818,0,0,1-5,1.978,8.722,8.722,0,0,1-3.817-.872,8.291,8.291,0,0,1-3.009-2.4l1.871-2.127a6.488,6.488,0,0,0,4.827,2.573,4.343,4.343,0,0,0,3.041-1.148,3.551,3.551,0,0,0,1.255-2.7,3.465,3.465,0,0,0-.829-2.275,13.331,13.331,0,0,0-3.743-2.467,12,12,0,0,1-4.253-3.19,6.017,6.017,0,0,1-1.127-3.594,5.85,5.85,0,0,1,1.8-4.381,6.254,6.254,0,0,1,4.54-1.744Q251.608-23.732,254.84-20.606Zm25.616,0-1.914,1.978a6.854,6.854,0,0,0-4.657-2.318,3.514,3.514,0,0,0-2.477.957,2.958,2.958,0,0,0-1.031,2.233,3.312,3.312,0,0,0,.851,2.148,11.951,11.951,0,0,0,3.573,2.446,13.339,13.339,0,0,1,4.508,3.317,6.052,6.052,0,0,1,1.17,3.636,6.532,6.532,0,0,1-2,4.827,6.818,6.818,0,0,1-5,1.978,8.722,8.722,0,0,1-3.817-.872,8.291,8.291,0,0,1-3.009-2.4l1.871-2.127a6.488,6.488,0,0,0,4.827,2.573,4.343,4.343,0,0,0,3.041-1.148,3.551,3.551,0,0,0,1.255-2.7,3.465,3.465,0,0,0-.829-2.275,13.331,13.331,0,0,0-3.743-2.467,12,12,0,0,1-4.253-3.19,6.017,6.017,0,0,1-1.127-3.594,5.85,5.85,0,0,1,1.8-4.381,6.254,6.254,0,0,1,4.54-1.744Q277.224-23.732,280.456-20.606Zm24.936-3.126a11.43,11.43,0,0,1,8.846,3.87,12.052,12.052,0,0,1,3.19,8.357,12.052,12.052,0,0,1-3.371,8.474A11.3,11.3,0,0,1,305.392.6,11.325,11.325,0,0,1,296.7-3.03a12.052,12.052,0,0,1-3.371-8.474,12.025,12.025,0,0,1,3.19-8.336A11.425,11.425,0,0,1,305.392-23.732Zm0,2.913a8.545,8.545,0,0,0-6.358,2.743,9.186,9.186,0,0,0-2.658,6.635,9.435,9.435,0,0,0,1.212,4.678,8.6,8.6,0,0,0,3.275,3.349,8.961,8.961,0,0,0,4.53,1.18,8.961,8.961,0,0,0,4.53-1.18A8.6,8.6,0,0,0,313.2-6.762a9.435,9.435,0,0,0,1.212-4.678,9.167,9.167,0,0,0-2.669-6.635A8.555,8.555,0,0,0,305.392-20.819Zm26.275-2.318h2.977v4.147a12.444,12.444,0,0,1,3.955-3.562,9.719,9.719,0,0,1,4.721-1.18,8.2,8.2,0,0,1,4.6,1.318,7.854,7.854,0,0,1,2.967,3.551,18.779,18.779,0,0,1,.957,6.954V0h-2.956V-11.037a26.489,26.489,0,0,0-.34-5.338,5.926,5.926,0,0,0-2-3.456,5.994,5.994,0,0,0-3.828-1.159,7.341,7.341,0,0,0-4.838,1.786,8.369,8.369,0,0,0-2.818,4.423,30.763,30.763,0,0,0-.425,6.295V0h-2.977Zm46.9,2.531-1.914,1.978A6.854,6.854,0,0,0,372-20.946a3.514,3.514,0,0,0-2.477.957,2.958,2.958,0,0,0-1.031,2.233,3.312,3.312,0,0,0,.851,2.148,11.951,11.951,0,0,0,3.573,2.446,13.339,13.339,0,0,1,4.508,3.317,6.052,6.052,0,0,1,1.17,3.636,6.532,6.532,0,0,1-2,4.827A6.818,6.818,0,0,1,371.6.6a8.722,8.722,0,0,1-3.817-.872,8.291,8.291,0,0,1-3.009-2.4l1.871-2.127a6.488,6.488,0,0,0,4.827,2.573,4.343,4.343,0,0,0,3.041-1.148,3.551,3.551,0,0,0,1.255-2.7,3.465,3.465,0,0,0-.829-2.275,13.331,13.331,0,0,0-3.743-2.467,12,12,0,0,1-4.253-3.19,6.017,6.017,0,0,1-1.127-3.594,5.85,5.85,0,0,1,1.8-4.381,6.254,6.254,0,0,1,4.54-1.744Q375.338-23.732,378.57-20.606Z" transform="translate(170.609 620.3)"/>
    <path id="Path_17" data-name="Path 17" class="cls-13" d="M372.789,238.192l-42.171,9.166v49.85a10.535,10.535,0,1,0,4.872,8.874h0v-54.8l32.433-7.052v38.788a10.537,10.537,0,1,0,4.866,8.874c0-.134-.018-.269-.018-.4h.018Z"/>
    <path id="Path_18" data-name="Path 18" class="cls-13" d="M400.773,264.779V304.8a8.458,8.458,0,1,0,3.909,7.125h0v-44"/>
    <path id="Path_19" data-name="Path 19" class="cls-13" d="M403.27,273.462l-1.411-2.821s-2.826-7.052.938-7.052,12.7,11.284,22.574-.472C425.371,263.117,414.555,283.807,403.27,273.462Z"/>
    <path id="Path_20" data-name="Path 20" class="cls-13" d="M452.922,250.6v26.88a5.682,5.682,0,1,0,2.622,4.786h0V252.711"/>
    <path id="Path_21" data-name="Path 21" class="cls-13" d="M454.6,256.428l-.95-1.9s-1.9-4.736.629-4.736,8.53,7.58,15.165-.316C469.442,249.48,462.18,263.377,454.6,256.428Z"/>
    <path id="Path_22" data-name="Path 22" class="cls-13" d="M305.8,369.151a35.274,35.274,0,0,0-3.107,4.128L334.1,451.627a75.2,75.2,0,0,0,7.294-4.557l-32.478-81.049A23.037,23.037,0,0,0,305.8,369.151Z"/>
    <path id="Path_23" data-name="Path 23" class="cls-13" d="M313.515,362.865l31.667,81.36c1.565-1.268,3.075-2.594,4.513-3.973l-31.016-79.705A34.987,34.987,0,0,0,313.515,362.865Z"/>
    <path id="Path_24" data-name="Path 24" class="cls-13" d="M324.206,358.966l29.775,76.783q1.066-1.221,2.074-2.493L327.06,358.518C326.105,358.63,325.159,358.779,324.206,358.966Z"/>
  </g>
</svg>
