<?xml version="1.0" encoding="UTF-8" standalone="no"?>
<svg
   xmlns:dc="http://purl.org/dc/elements/1.1/"
   xmlns:cc="http://creativecommons.org/ns#"
   xmlns:rdf="http://www.w3.org/1999/02/22-rdf-syntax-ns#"
   xmlns:svg="http://www.w3.org/2000/svg"
   xmlns="http://www.w3.org/2000/svg"
   viewBox="0 0 816 1056"
   height="1056"
   width="816"
   xml:space="preserve"
   id="svg2"
   version="1.1"><metadata
     id="metadata8"><rdf:RDF><cc:Work
         rdf:about=""><dc:format>image/svg+xml</dc:format><dc:type
           rdf:resource="http://purl.org/dc/dcmitype/StillImage" /></cc:Work></rdf:RDF></metadata><defs
     id="defs6"><clipPath
       id="clipPath18"
       clipPathUnits="userSpaceOnUse"><path
         id="path16"
         d="M 0,792 H 612 V 0 H 0 Z" /></clipPath><clipPath
       id="clipPath110"
       clipPathUnits="userSpaceOnUse"><path
         id="path108"
         d="M 0,792 H 612 V 0 H 0 Z" /></clipPath></defs><g
     transform="matrix(1.3333333,0,0,-1.3333333,0,1056)"
     id="g10"><g
       id="g12"><g
         clip-path="url(#clipPath18)"
         id="g14"><g
           transform="translate(494.9639,344.0947)"
           id="g20"><path
             id="path22"
             style="fill:#e7e8e9;fill-opacity:1;fill-rule:nonzero;stroke:none"
             d="m 0,0 c 0,4.675 -61.471,8.463 -137.296,8.463 -75.829,0 -137.3,-3.788 -137.3,-8.463 0,-4.672 61.471,-8.464 137.3,-8.464 C -61.471,-8.464 0,-4.672 0,0" /></g><g
           transform="translate(256.5718,613.9893)"
           id="g24"><path
             id="path26"
             style="fill:#f15a29;fill-opacity:1;fill-rule:nonzero;stroke:none"
             d="m 0,0 33.855,-90.748 c 0,0 7.996,36.206 3.293,53.133 C 32.445,-20.687 17.398,-4.703 0,0" /></g><g
           transform="translate(303.5928,430.1416)"
           id="g28"><path
             id="path30"
             style="fill:#262261;fill-opacity:1;fill-rule:nonzero;stroke:none"
             d="m 0,0 19.647,-54.005 c 0,0 -34.695,7.924 -31.402,29.556 C -8.463,-2.821 0,0 0,0" /></g><g
           transform="translate(313.4668,433.9038)"
           id="g32"><path
             id="path34"
             style="fill:#2a3890;fill-opacity:1;fill-rule:nonzero;stroke:none"
             d="m 0,0 26.8,-71.471 -9.874,-4.233 -26.8,70.062 z" /></g><g
           transform="translate(324.2832,436.2544)"
           id="g36"><path
             id="path38"
             style="fill:#1b75bc;fill-opacity:1;fill-rule:nonzero;stroke:none"
             d="M 0,0 26.801,-68.649 15.983,-73.822 -10.816,-2.351 Z" /></g><g
           transform="translate(335.5674,443.7783)"
           id="g40"><path
             id="path42"
             style="fill:#00aeef;fill-opacity:1;fill-rule:nonzero;stroke:none"
             d="m 0,0 -11.759,-5.173 27.276,-71 11.284,10.815 7.053,21.158 -0.942,20.689 -13.639,16.927 z" /></g><g
           transform="translate(256.5718,613.9893)"
           id="g44"><path
             id="path46"
             style="fill:#fbb03f;fill-opacity:1;fill-rule:nonzero;stroke:none"
             d="M 0,0 31.973,-85.575 27.389,-104.619 -13.4,1.059 Z" /></g><g
           transform="translate(242.8184,616.8105)"
           id="g48"><path
             id="path50"
             style="fill:#8cc63f;fill-opacity:1;fill-rule:nonzero;stroke:none"
             d="m 0,0 41.026,-104.971 -9.874,-7.405 -41.379,108.145 z" /></g><g
           transform="translate(232.5918,612.5791)"
           id="g52"><path
             id="path54"
             style="fill:#d7df23;fill-opacity:1;fill-rule:nonzero;stroke:none"
             d="m 0,0 26.801,-71.235 -25.038,-3.879 -22.568,17.28 -2.821,29.27 c 0,0 14.811,24.332 23.626,28.564" /></g><g
           transform="translate(232.5918,612.5791)"
           id="g56"><path
             id="path58"
             style="fill:none;stroke:#231f20;stroke-width:1;stroke-linecap:butt;stroke-linejoin:miter;stroke-miterlimit:4;stroke-dasharray:none;stroke-opacity:1"
             d="m 0,0 26.801,-71.235 -25.038,-3.879 -22.568,17.28 -2.821,29.27 c 0,0 14.811,24.332 23.626,28.564 z" /></g><g
           transform="translate(281.4868,505.9409)"
           id="g60"><path
             id="path62"
             style="fill:#000000;fill-opacity:1;fill-rule:nonzero;stroke:none"
             d="m 0,0 c 20.293,22.389 38.089,39.401 8.494,87.022 -1.623,2.295 -3.93,5.345 -6.786,8.698 -2.703,2.89 -5.565,5.598 -8.594,8.058 -12.279,9.93 -27.15,15.258 -41.593,12.966 -13.973,-2.232 -26.837,-10.668 -33.976,-23.749 -6.76,-12.373 -7.091,-27.427 -1.652,-41.359 1.62,-3.538 3.582,-7.444 6.278,-11.334 0.516,-0.656 1.04,-1.295 1.59,-1.924 2.681,-3.024 5.733,-5.642 8.977,-7.857 7.031,-4.805 15.086,-7.853 23.076,-8.458 15.638,-1.196 29.942,8.584 35.926,23.727 1.491,3.774 2.447,7.846 2.793,12.051 0.144,1.701 0.555,0.451 -0.757,1.895 -1.108,1.201 -8.017,15.808 -7.405,14.282 3.525,-8.816 3.528,-15.566 3.058,-17.604 -0.417,-1.813 -0.952,-3.582 -1.64,-5.251 -1.355,-3.312 -3.314,-6.277 -5.89,-8.508 -9.61,-8.326 -24.631,-5.583 -34.742,3.292 -1.882,1.504 -3.469,3.295 -4.794,5.229 -0.368,0.496 -0.748,0.978 -1.088,1.496 0.031,0.016 0.058,0.033 0.086,0.049 -1.282,2.147 -2.26,4.4 -2.998,6.585 -0.021,-0.014 -0.049,-0.03 -0.073,-0.044 -5.498,16.448 0.299,33.182 13.13,41.233 8.745,5.48 19.596,5.89 29.558,2.24 C -3.583,98.888 4.786,82.104 6.571,77.848 8.749,72.654 10.818,65.026 10.818,53.507 7.058,22.003 7.888,-2.234 -15.983,-12.085" /></g><g
           transform="translate(376.6016,418.4868)"
           id="g64"><path
             id="path66"
             style="fill:#000000;fill-opacity:1;fill-rule:nonzero;stroke:none"
             d="m 0,0 c -2.232,13.975 -10.668,26.835 -23.75,33.976 -12.376,6.762 -27.428,7.089 -41.359,1.65 -3.538,-1.618 -7.445,-3.581 -11.334,-6.279 -0.657,-0.512 -1.296,-1.037 -1.924,-1.586 -3.025,-2.685 -5.642,-5.736 -7.857,-8.977 -4.806,-7.034 -7.853,-15.086 -8.459,-23.079 -1.196,-15.636 8.585,-29.939 23.726,-35.922 3.775,-1.495 7.848,-2.45 12.054,-2.794 1.702,-0.145 4.098,-0.651 5.542,0.661 1.202,1.103 1.036,2.887 -0.523,3.408 -1.934,0.642 -4.407,0.565 -6.448,1.033 -1.814,0.415 -3.582,0.951 -5.252,1.639 -3.311,1.356 -6.275,3.314 -8.507,5.89 -8.327,9.613 -5.582,24.633 3.293,34.742 1.503,1.882 3.294,3.468 5.229,4.796 0.495,0.366 0.977,0.749 1.495,1.086 0.017,-0.028 0.033,-0.056 0.05,-0.083 2.145,1.279 4.399,2.259 6.586,2.995 -0.017,0.024 -0.033,0.05 -0.044,0.075 16.448,5.499 33.182,-0.298 41.232,-13.131 5.478,-8.745 5.891,-19.597 2.236,-29.556 -3.844,-15.44 -20.629,-23.809 -24.882,-25.596 -5.197,-2.175 -5.825,-2.206 -9.781,-3.085 -27.265,-7.929 -57.217,2.722 -67.071,26.592 -12.282,29.788 18.882,77.7 25.05,88.897 6.166,11.197 11.535,20.884 13.712,25.983 2.217,5.736 4,11.583 5.253,17.485 3.367,15.885 3.256,32.784 -2.066,47.634 -2.498,6.993 -6.128,13.66 -10.351,19.953 l -1.248,-13.489 c 4.94,-20.481 -4.576,-43.828 -17.109,-62.049 -0.024,0.041 -0.051,0.081 -0.075,0.121 -1.856,-3.24 -3.903,-6.715 -6.046,-10.305 -0.662,-1.162 -1.326,-2.325 -1.99,-3.49 -8.155,-14.264 -16.282,-28.651 -22.046,-43.737 -5.631,-14.772 -8.904,-30.438 -6.222,-45.409 2.636,-14.742 10.884,-28.319 22.14,-38.527 22.389,-20.297 57.67,-26.088 87.023,-8.497 2.292,1.627 5.346,3.93 8.696,6.789 2.893,2.699 5.597,5.562 8.06,8.591 C -3.037,-29.316 2.292,-14.445 0,0" /></g><g
           transform="translate(279.291,494.604)"
           id="g68"><path
             id="path70"
             style="fill:#231f20;fill-opacity:1;fill-rule:nonzero;stroke:none"
             d="m 0,0 -53.785,139.589 c -0.981,-0.061 -1.951,-0.169 -2.923,-0.257 L -1.918,-2.866 C -1.296,-1.912 -0.656,-0.953 0,0" /></g><g
           transform="translate(279.291,494.604)"
           id="g72"><path
             id="path74"
             style="fill:none;stroke:#231f20;stroke-width:2;stroke-linecap:butt;stroke-linejoin:miter;stroke-miterlimit:4;stroke-dasharray:none;stroke-opacity:1"
             d="m 0,0 -53.785,139.589 c -0.981,-0.061 -1.951,-0.169 -2.923,-0.257 L -1.918,-2.866 C -1.296,-1.912 -0.656,-0.953 0,0 Z" /></g><g
           transform="translate(288.6875,505.269)"
           id="g76"><path
             id="path78"
             style="fill:#231f20;fill-opacity:1;fill-rule:nonzero;stroke:none"
             d="m 0,0 -49.714,129.023 c -1.018,0.044 -2.037,0.082 -3.061,0.099 L -2.035,-2.564 C -1.367,-1.705 -0.686,-0.852 0,0" /></g><g
           transform="translate(288.6875,505.269)"
           id="g80"><path
             id="path82"
             style="fill:none;stroke:#231f20;stroke-width:1;stroke-linecap:butt;stroke-linejoin:miter;stroke-miterlimit:4;stroke-dasharray:none;stroke-opacity:1"
             d="m 0,0 -49.714,129.023 c -1.018,0.044 -2.037,0.082 -3.061,0.099 L -2.035,-2.564 C -1.367,-1.705 -0.686,-0.852 0,0 Z" /></g><g
           transform="translate(295.6138,515.0254)"
           id="g84"><path
             id="path86"
             style="fill:#231f20;fill-opacity:1;fill-rule:nonzero;stroke:none"
             d="m 0,0 -45.471,118.015 c -1.072,0.169 -2.133,0.37 -3.218,0.507 L -2.109,-2.375 C -1.407,-1.576 -0.704,-0.783 0,0" /></g><g
           transform="translate(240.5879,659.5996)"
           id="g88"><path
             id="path90"
             style="fill:#231f20;fill-opacity:1;fill-rule:nonzero;stroke:none"
             d="m 0,0 c 0,-9.348 -7.578,-16.927 -16.928,-16.927 -9.349,0 -16.927,7.579 -16.927,16.927 0,9.348 7.578,16.927 16.927,16.927 C -7.578,16.927 0,9.348 0,0" /></g><g
           transform="translate(365.6631,326.6992)"
           id="g92"><path
             id="path94"
             style="fill:#231f20;fill-opacity:1;fill-rule:nonzero;stroke:none"
             d="m 0,0 c 0,-7.53 -6.105,-13.635 -13.637,-13.635 -7.527,0 -13.632,6.105 -13.632,13.635 0,7.53 6.105,13.635 13.632,13.635 C -6.105,13.635 0,7.53 0,0" /></g></g></g><text
       id="text98"
       style="font-variant:normal;font-weight:normal;font-stretch:normal;font-size:133.86039734px;font-family:'Trajan Pro';-inkscape-font-specification:TrajanPro-Regular;writing-mode:lr-tb;fill:#662c91;fill-opacity:1;fill-rule:nonzero;stroke:none"
       transform="matrix(1,0,0,-1,36.2529,215.1406)"><tspan
         id="tspan96"
         y="0"
         x="0 123.95473 221.94054 289.40619 338.80066 427.28241">musika</tspan></text>
<text
       id="text102"
       style="font-variant:normal;font-weight:normal;font-stretch:normal;font-size:43.55149841px;font-family:'Century Gothic';-inkscape-font-specification:CenturyGothic;writing-mode:lr-tb;fill:#00aeef;fill-opacity:1;fill-rule:nonzero;stroke:none"
       transform="matrix(1,0,0,-1,170.6094,171.7002)"><tspan
         id="tspan100"
         y="0"
         x="0 49.561607 84.751221 110.3595 127.7801 164.66823 185.44229 202.86288 239.88167 265.48993 291.09824 328.33475 363.61148">music lessons</tspan></text>
<g
       id="g104"><g
         clip-path="url(#clipPath110)"
         id="g106"><g
           transform="translate(372.7891,553.8081)"
           id="g112"><path
             id="path114"
             style="fill:#231f20;fill-opacity:1;fill-rule:nonzero;stroke:none"
             d="m 0,0 -42.171,-9.166 v -49.85 c -1.642,1.047 -3.58,1.663 -5.675,1.663 -5.824,0 -10.541,-4.717 -10.541,-10.537 0,-5.825 4.717,-10.545 10.541,-10.545 5.825,0 10.547,4.72 10.547,10.545 v 54.801 l 32.433,7.052 v -38.788 c -1.638,1.05 -3.587,1.67 -5.676,1.67 -5.824,0 -10.541,-4.726 -10.541,-10.544 0,-5.822 4.717,-10.545 10.541,-10.545 5.825,0 10.542,4.723 10.542,10.545 0,0.134 -0.018,0.269 -0.018,0.402 l 0.018,0 z" /></g><g
           transform="translate(400.7734,527.2212)"
           id="g116"><path
             id="path118"
             style="fill:#231f20;fill-opacity:1;fill-rule:nonzero;stroke:none"
             d="m 0,0 v -40.022 c -1.322,0.84 -2.876,1.335 -4.562,1.335 -4.673,0 -8.462,-3.785 -8.462,-8.46 0,-4.675 3.789,-8.463 8.462,-8.463 4.679,0 8.47,3.788 8.47,8.463 v 43.999" /></g><g
           transform="translate(403.2705,518.5381)"
           id="g120"><path
             id="path122"
             style="fill:#231f20;fill-opacity:1;fill-rule:nonzero;stroke:none"
             d="m 0,0 -1.411,2.821 c 0,0 -2.826,7.052 0.937,7.052 3.764,0 12.701,-11.284 22.575,0.472 0,0 -10.817,-20.69 -22.101,-10.345" /></g><g
           transform="translate(452.9219,541.4043)"
           id="g124"><path
             id="path126"
             style="fill:#231f20;fill-opacity:1;fill-rule:nonzero;stroke:none"
             d="m 0,0 v -26.88 c -0.888,0.564 -1.935,0.898 -3.063,0.898 -3.141,0 -5.687,-2.543 -5.687,-5.684 0,-3.138 2.546,-5.684 5.687,-5.684 3.139,0 5.685,2.546 5.685,5.684 v 29.551" /></g><g
           transform="translate(454.5977,535.5723)"
           id="g128"><path
             id="path130"
             style="fill:#231f20;fill-opacity:1;fill-rule:nonzero;stroke:none"
             d="m 0,0 -0.949,1.896 c 0,0 -1.896,4.735 0.629,4.735 2.529,0 8.529,-7.579 15.165,0.317 C 14.845,6.948 7.582,-6.949 0,0" /></g><g
           transform="translate(305.8032,422.8486)"
           id="g132"><path
             id="path134"
             style="fill:#231f20;fill-opacity:1;fill-rule:nonzero;stroke:none"
             d="m 0,0 c -1.141,-1.301 -2.177,-2.686 -3.107,-4.128 l 31.405,-78.348 c 2.54,1.391 4.971,2.914 7.295,4.557 L 3.115,3.13 C 2,2.182 0.93,1.165 0,0" /></g><g
           transform="translate(313.5146,429.1348)"
           id="g136"><path
             id="path138"
             style="fill:#231f20;fill-opacity:1;fill-rule:nonzero;stroke:none"
             d="m 0,0 31.667,-81.359 c 1.565,1.267 3.075,2.593 4.514,3.972 L 5.164,2.318 C 3.444,1.711 1.702,0.935 0,0" /></g><g
           transform="translate(324.2061,433.0337)"
           id="g140"><path
             id="path142"
             style="fill:#231f20;fill-opacity:1;fill-rule:nonzero;stroke:none"
             d="m 0,0 29.775,-76.783 c 0.711,0.815 1.4,1.647 2.074,2.493 L 2.854,0.449 C 1.899,0.336 0.953,0.187 0,0" /></g></g></g></g></svg>