<svg xmlns="http://www.w3.org/2000/svg" viewBox="0 0 639.038 162.902"><defs><style>.a{fill:#482080;}.b{fill:#00a1ed;}.c{fill:#ec411b;}.d{fill:#464646;}.e{fill:#fff;}.f{fill:#fe9d2b;}.g{fill:#8abb2a;}.h{fill:#dad800;}.h,.j,.k{stroke:#1a1818;}.i{fill:#040505;}.j,.k,.l{fill:#1a1818;}.j{stroke-width:2px;}</style></defs><g transform="translate(-411.601 -205.473)"><path class="a" d="M100.931-84.2q-.4-3.079-1.74-3.079-.937,0-1.874,1.874L63.048-14.859,27.441-85.537a2.756,2.756,0,0,0-2.409-1.74q-1.071,0-1.339,2.008L15.126-10.977q-.4,3.213-1,5.89a4.016,4.016,0,0,1-3.547,3.213q-1.339.268-2.075.335t-1.406.067q-1.2,0-1.2.8Q5.89.4,7.9.4,9.1.4,10.642.335L13.654.2q1.472-.067,2.61-.134T17.8,0q.4,0,1.539.067T22.02.2q1.539.067,3.347.134T28.78.4q2.142,0,2.142-1.071,0-.8-.937-.8a18.131,18.131,0,0,1-1.874-.134,17.714,17.714,0,0,1-2.677-.535q-2.811-.669-2.811-3.213V-8.3q0-1.472.134-2.811l4.551-51.4h.535q.8,1.74,2.744,5.823T34.8-47.922q2.276,4.685,4.484,9.236t3.547,7.228q1.071,2.276,2.945,5.89t3.882,7.5q2.008,3.882,3.882,7.362t3.079,5.622q1.74,3.079,2.476,4.15A1.994,1.994,0,0,0,60.639.134q.8,0,1.539-1.138t2.61-4.886l28.378-58.1h.268l5.622,57.56a9.947,9.947,0,0,1,.134,2.744q-.134,1.138-.669,1.272-.8.268-.8.937,0,.4.6.669a12.333,12.333,0,0,0,2.744.535q1.606.134,4.551.268t6.091.2q3.146.067,5.756.134T121.144.4a4.752,4.752,0,0,0,1.74-.268q.669-.268.669-.8,0-.8-.937-.8T119.6-1.606a19.722,19.722,0,0,1-4.618-.937,5.465,5.465,0,0,1-2.945-1.941,13.052,13.052,0,0,1-1.74-3.079,15.425,15.425,0,0,1-.937-3.48q-.268-1.807-.4-3.28Zm37.749,48.19a65.748,65.748,0,0,0,.8,10.977,39.9,39.9,0,0,0,2.209,8.165,29.059,29.059,0,0,0,3.28,6.091,31.412,31.412,0,0,0,4.016,4.618,23.127,23.127,0,0,0,6.76,4.551A41,41,0,0,0,162.908.8a35.849,35.849,0,0,0,6.291.937q2.811.134,4.284.134,2.543,0,5.555-.268A34.573,34.573,0,0,0,185.2.469a37.162,37.162,0,0,0,6.425-2.476,29.909,29.909,0,0,0,6.492-4.417,23.566,23.566,0,0,0,5.622-6.961,40.115,40.115,0,0,0,3.346-8.5,52.6,52.6,0,0,0,1.606-9.236q.4-4.752.4-9.437V-74.293q0-1.606.134-2.945a12.571,12.571,0,0,1,1-4.284,4.277,4.277,0,0,1,3.146-2.008,7.323,7.323,0,0,1,1.606-.268h1.339a.828.828,0,0,0,.937-.937q0-.937-1.874-.937-2.677,0-5.957.134t-3.949.134q-.268,0-1.539-.067t-3.146-.067q-1.74,0-3.882-.067t-4.15-.067q-1.874,0-1.874.937a.828.828,0,0,0,.937.937q.8,0,2.075.067a14.486,14.486,0,0,1,1.941.2q2.945.4,3.748,2.008a10.888,10.888,0,0,1,.937,4.284q0,1.339.067,2.878t.134,4.15q.067,2.61.067,6.76v25.032a87.319,87.319,0,0,1-1.272,15.729A25.2,25.2,0,0,1,194.1-10.843a22.5,22.5,0,0,1-7.9,5.823,24.443,24.443,0,0,1-10.307,2.209,34.157,34.157,0,0,1-9.169-1.138,21.3,21.3,0,0,1-8.366-5.02,27.186,27.186,0,0,1-3.48-3.949,21,21,0,0,1-2.744-5.488,43.454,43.454,0,0,1-1.807-7.764,73.212,73.212,0,0,1-.669-10.642V-70.143q0-2.677.067-4.217t.2-2.878a13.3,13.3,0,0,1,1-4.35,3.781,3.781,0,0,1,3.012-1.941,7.323,7.323,0,0,1,1.606-.268h1.339q1.071,0,1.071-.937t-2.008-.937q-1.339,0-3.213.067t-3.748.067q-1.74,0-3.146.067t-1.807.067q-.4,0-1.807-.067t-3.413-.067q-1.874,0-4.083-.067t-4.217-.067q-1.874,0-1.874.937a.828.828,0,0,0,.937.937q.8,0,2.075.067a14.486,14.486,0,0,1,1.941.2q2.945.4,3.748,2.008a12.477,12.477,0,0,1,1.071,4.284q.134,1.339.2,2.878t.067,4.217v34.134ZM249.917,1.874a63.482,63.482,0,0,0,9.906-.8,22.678,22.678,0,0,0,8.835-3.213q6.291-4.15,8.634-9.236a24.141,24.141,0,0,0,2.343-10.173,24.777,24.777,0,0,0-1-7.028,23.261,23.261,0,0,0-3.28-6.693,41.754,41.754,0,0,0-5.957-6.693,75.219,75.219,0,0,0-9.036-7.028l-3.346-2.276q-4.417-2.945-7.3-5.287a32.751,32.751,0,0,1-4.685-4.551,13.87,13.87,0,0,1-2.543-4.484,16.009,16.009,0,0,1-.736-4.953,10.4,10.4,0,0,1,4.618-9.169,19.141,19.141,0,0,1,11.043-3.146,29.029,29.029,0,0,1,6.76.669,20.57,20.57,0,0,1,4.551,1.606,11.182,11.182,0,0,1,2.744,1.874,6.643,6.643,0,0,1,1.2,1.472,13.5,13.5,0,0,1,1.071,2.744,19.12,19.12,0,0,1,.669,2.878,9.261,9.261,0,0,0,.268,1.071q.134.4.8.4.937,0,.937-2.543,0-5.89.268-8.768t.268-3.28q0-.8-1.2-.8-.669,0-1.539-.067a19.443,19.443,0,0,1-2.61-.469,46.047,46.047,0,0,0-5.421-.937,55.589,55.589,0,0,0-6.76-.4,35.88,35.88,0,0,0-10.642,1.472,25.184,25.184,0,0,0-8.232,4.217,18.405,18.405,0,0,0-5.354,6.76,20.953,20.953,0,0,0-1.874,8.969A21.1,21.1,0,0,0,237-54.414q3.681,5.689,13.185,12.784l5.354,4.016q3.882,2.945,6.693,5.221a31.776,31.776,0,0,1,4.618,4.484,15.735,15.735,0,0,1,2.677,4.618,16.1,16.1,0,0,1,.87,5.488,14.521,14.521,0,0,1-4.417,10.776q-4.417,4.35-13.252,4.35a30.317,30.317,0,0,1-5.957-.6,21.489,21.489,0,0,1-5.622-1.941,14.972,14.972,0,0,1-4.484-3.48,11.469,11.469,0,0,1-2.543-5.221,14.807,14.807,0,0,1-.335-2.343q-.067-1.138-.067-1.807,0-1.339-1.071-1.339-.937,0-.937,1.874-.134,1.472-.4,4.618t-.268,7.429a9.917,9.917,0,0,0,.268,2.945A3.13,3.13,0,0,0,232.783-1.2a28.257,28.257,0,0,0,8.3,2.409A62.617,62.617,0,0,0,249.917,1.874Zm73.623-54.615v-17.4q0-2.677.067-4.217t.067-2.878a11.914,11.914,0,0,1,1-4.417,4.451,4.451,0,0,1,3.146-1.874,7.323,7.323,0,0,1,1.606-.268h1.339a.828.828,0,0,0,.937-.937q0-.937-1.874-.937-1.339,0-3.28.067t-3.815.067q-1.74,0-3.146.067t-1.539.067q-.268,0-1.606-.067t-3.213-.067q-1.74,0-3.681-.067t-3.413-.067q-1.874,0-1.874.937a.828.828,0,0,0,.937.937q.669,0,1.606.067a11.772,11.772,0,0,1,2.008.335,3.815,3.815,0,0,1,2.677,1.807,11.158,11.158,0,0,1,1.071,4.35q.134,1.339.2,2.878t.067,4.217v37.481q0,8.3-.134,14.725t-.535,9.906a18.786,18.786,0,0,1-.8,4.083,2.919,2.919,0,0,1-2.276,1.941,9.836,9.836,0,0,1-1.807.4,13.8,13.8,0,0,1-1.807.134.828.828,0,0,0-.937.937q0,.937,1.874.937,1.339,0,3.213-.067L313.3.2q1.807-.067,3.146-.134T318.052,0q.134,0,1.539.067T323.139.2q2.142.067,4.685.134T332.777.4q1.874,0,1.874-.937a.828.828,0,0,0-.937-.937q-.8,0-2.409-.134a26.141,26.141,0,0,1-2.945-.4q-2.677-.4-3.347-1.941a14.161,14.161,0,0,1-.937-4.083q-.4-3.48-.469-9.906t-.067-14.725ZM364.9-32.662q0,8.3-.067,14.725a74.625,74.625,0,0,1-.6,9.906,31.325,31.325,0,0,1-.87,4.083,2.761,2.761,0,0,1-2.209,1.941,9.836,9.836,0,0,1-1.807.4,13.8,13.8,0,0,1-1.807.134.828.828,0,0,0-.937.937q0,.937,1.874.937,1.339,0,3.213-.067T365.305.2q1.74-.067,3.079-.134T370.124,0q.4,0,1.74.067T375.211.2q2.008.067,4.284.134T383.912.4q1.874,0,1.874-.937a.828.828,0,0,0-.937-.937,20.64,20.64,0,0,1-2.075-.134,22.046,22.046,0,0,1-2.476-.4q-2.677-.4-3.48-1.941a11.515,11.515,0,0,1-1.071-4.083q-.4-3.48-.469-9.906t-.067-14.725v-11.11h.535q1.339,1.74,4.217,4.819t6.358,6.827q3.48,3.748,7.362,7.764t7.429,7.563q3.547,3.547,6.291,6.225t4.083,3.748q1.874,1.472,3.48,2.677a23.671,23.671,0,0,0,3.28,2.075A23.942,23.942,0,0,0,421.727-.6a15.848,15.848,0,0,0,4.083.736A28.461,28.461,0,0,0,429.558.4H440a5.069,5.069,0,0,0,2.008-.268q.535-.268.535-.669,0-.937-1.472-.937a23.564,23.564,0,0,1-2.811-.335,19.547,19.547,0,0,1-4.417-1.272,23.118,23.118,0,0,1-3.614-1.673q-1.472-.87-3.213-2.142A49.464,49.464,0,0,1,423-10.24q-2.276-2.075-6.024-5.421-1.2-1.071-3.882-3.681t-6.024-5.89q-3.347-3.28-6.961-6.961t-6.827-6.894q-3.213-3.213-5.555-5.622t-3.146-3.213l2.61-2.61,4.484-4.484q2.543-2.543,5.488-5.354t5.622-5.354q2.677-2.543,4.618-4.417t2.744-2.543q3.882-3.748,6.291-5.89a23.14,23.14,0,0,1,6.024-3.748,35.146,35.146,0,0,1,3.48-1.138,12.023,12.023,0,0,1,3.079-.469q1.2,0,1.2-.937,0-.8-1.74-.8-1.071,0-2.878.067t-3.681.067q-1.74,0-3.146.067t-1.673.067q-2.142,0-4.551-.134t-4.284-.134q-1.339,0-1.339.8t1.071,1.071q1.472.268,1.472,2.276,0,1.472-1.941,3.547t-4.484,4.618q-1.071,1.2-3.413,3.48t-5.221,5.154l-5.957,5.957-5.756,5.756-4.618,4.618q-1.941,1.941-2.343,2.476h-.535V-70.143q0-2.677.067-4.217t.2-2.878a10.9,10.9,0,0,1,1.071-4.417,4.6,4.6,0,0,1,3.079-1.874,7.323,7.323,0,0,1,1.606-.268h1.339a.828.828,0,0,0,.937-.937q0-.937-1.874-.937-1.339,0-3.146.067t-3.547.067q-1.74,0-3.146.067t-1.807.067q-.268,0-1.606-.067t-3.346-.067q-1.874,0-4.083-.067t-4.217-.067q-1.874,0-1.874.937a.828.828,0,0,0,.937.937q.8,0,2.075.067a14.485,14.485,0,0,1,1.941.2q2.945.4,3.748,1.874a11.779,11.779,0,0,1,1.071,4.417q.134,1.339.2,2.878t.067,4.217v37.481Zm78.71,20.481A32.665,32.665,0,0,1,439.8-5.087a8.6,8.6,0,0,1-6.091,3.347,13.48,13.48,0,0,1-1.74.2q-1.071.067-1.74.067-1.071,0-1.071.937T431.432.4q1.74,0,3.681-.067T438.727.2Q440.4.134,441.672.067T443.346,0q.535,0,1.807.067T448.031.2l3.213.134Q452.85.4,453.921.4q1.74,0,1.74-.937t-1.2-.937h-1.071a5.8,5.8,0,0,1-2.744-.669,2.48,2.48,0,0,1-1.272-2.409,22.238,22.238,0,0,1,1.74-7.63L457.8-30.386a1.3,1.3,0,0,1,1.2-.937h27.174a1.21,1.21,0,0,1,1.071.669l10.575,26.1q.669,1.472.067,2.142a4.052,4.052,0,0,1-1.138.937,2.934,2.934,0,0,1-.6.335q-.2.067-.2.469,0,.535,1.2.6t2.945.2q3.079.134,6.091.2T511.748.4h6.961a7.78,7.78,0,0,0,1.874-.2q.8-.2.8-.736a.734.734,0,0,0-.469-.736,2.521,2.521,0,0,0-1-.2,19.63,19.63,0,0,1-2.142-.134,14.42,14.42,0,0,1-2.543-.535,11.753,11.753,0,0,1-2.008-.8,8.925,8.925,0,0,1-2.343-1.874A22.335,22.335,0,0,1,508.2-8.433a44.225,44.225,0,0,1-3.012-6.158q-1.874-4.284-4.484-10.776T495.15-39.087q-2.945-7.228-5.957-14.658T483.638-67.4q-2.543-6.225-4.35-10.642t-2.343-5.622q-.937-1.874-1.406-3.012a1.523,1.523,0,0,0-1.406-1.138,1.488,1.488,0,0,0-1.2.8,22.41,22.41,0,0,0-1.606,3.614Zm17-23.827q-.669,0-.4-.8L471.189-68q.937-2.543,2.008,0l11.646,31.189q.134.8-.4.8Z" transform="translate(529.253 310.86)"/><path class="b" d="M3.632,0V-29.845H9.82q6.7,0,9.718,1.075a12.99,12.99,0,0,1,6.787,5.275,16.029,16.029,0,0,1,2.445,8.947,15.693,15.693,0,0,1-1.938,7.892A12.419,12.419,0,0,1,21.8-1.623Q18.706,0,13.127,0ZM6.492-2.82H9.942q6.188,0,8.582-.771a9.9,9.9,0,0,0,5.3-3.946,12.153,12.153,0,0,0,1.927-6.969,12.789,12.789,0,0,0-2.09-7.385,10.522,10.522,0,0,0-5.823-4.2A35.181,35.181,0,0,0,8.6-26.944H6.492ZM35.079-31.164a2.267,2.267,0,0,1,1.664.69,2.267,2.267,0,0,1,.69,1.664,2.244,2.244,0,0,1-.69,1.643,2.267,2.267,0,0,1-1.664.69,2.244,2.244,0,0,1-1.643-.69,2.244,2.244,0,0,1-.69-1.643,2.267,2.267,0,0,1,.69-1.664A2.244,2.244,0,0,1,35.079-31.164Zm-1.42,9.089H36.52V0H33.659ZM53.5-19.66l-1.826,1.887a6.539,6.539,0,0,0-4.443-2.211,3.353,3.353,0,0,0-2.364.913,2.822,2.822,0,0,0-.984,2.13,3.16,3.16,0,0,0,.812,2.049A11.4,11.4,0,0,0,48.1-12.559a12.726,12.726,0,0,1,4.3,3.165,5.774,5.774,0,0,1,1.116,3.469,6.232,6.232,0,0,1-1.907,4.606A6.505,6.505,0,0,1,46.847.568,8.321,8.321,0,0,1,43.2-.264a7.91,7.91,0,0,1-2.871-2.293L42.12-4.585A6.19,6.19,0,0,0,46.725-2.13a4.143,4.143,0,0,0,2.9-1.1,3.388,3.388,0,0,0,1.2-2.577,3.306,3.306,0,0,0-.791-2.171,12.719,12.719,0,0,0-3.571-2.354A11.445,11.445,0,0,1,42.4-13.37,5.741,5.741,0,0,1,41.328-16.8a5.581,5.581,0,0,1,1.714-4.179,5.967,5.967,0,0,1,4.332-1.664Q50.418-22.642,53.5-19.66Zm26.457,2.171-2.252,1.4a9.448,9.448,0,0,0-7.973-3.875,9.225,9.225,0,0,0-6.705,2.6,8.476,8.476,0,0,0-2.668,6.31,8.958,8.958,0,0,0,1.227,4.545,8.6,8.6,0,0,0,3.368,3.307,9.793,9.793,0,0,0,4.8,1.177A9.707,9.707,0,0,0,77.706-5.9l2.252,1.481A10.621,10.621,0,0,1,75.708-.741,13.623,13.623,0,0,1,69.631.568a12,12,0,0,1-8.684-3.327,10.825,10.825,0,0,1-3.449-8.1,11.563,11.563,0,0,1,1.613-5.955A11.363,11.363,0,0,1,63.545-21.1a12.934,12.934,0,0,1,6.31-1.542,13.473,13.473,0,0,1,4.23.67,11.763,11.763,0,0,1,3.459,1.745A9.49,9.49,0,0,1,79.958-17.489Zm15.906-5.153a10.9,10.9,0,0,1,8.44,3.693,11.5,11.5,0,0,1,3.043,7.973,11.5,11.5,0,0,1-3.216,8.085A10.782,10.782,0,0,1,95.865.568a10.805,10.805,0,0,1-8.288-3.459,11.5,11.5,0,0,1-3.216-8.085A11.473,11.473,0,0,1,87.4-18.929,10.9,10.9,0,0,1,95.865-22.642Zm0,2.78A8.152,8.152,0,0,0,89.8-17.245a8.764,8.764,0,0,0-2.536,6.33,9,9,0,0,0,1.156,4.464,8.209,8.209,0,0,0,3.124,3.2A8.549,8.549,0,0,0,95.865-2.13a8.549,8.549,0,0,0,4.322-1.126,8.209,8.209,0,0,0,3.124-3.2,9,9,0,0,0,1.156-4.464,8.746,8.746,0,0,0-2.546-6.33A8.162,8.162,0,0,0,95.865-19.863Zm14.669-2.211h3.023l7.385,16.069,7.324-16.069h3.043L121.205,0H120.7Zm43.7,14.75,2.394,1.258a13.057,13.057,0,0,1-2.719,3.733,10.8,10.8,0,0,1-3.469,2.161,12.091,12.091,0,0,1-4.362.741,10.537,10.537,0,0,1-8.44-3.54,11.95,11.95,0,0,1-3.043-8,11.808,11.808,0,0,1,2.577-7.487,10.531,10.531,0,0,1,8.744-4.179,10.876,10.876,0,0,1,9.008,4.281,11.959,11.959,0,0,1,2.435,7.547H137.517a9.026,9.026,0,0,0,2.455,6.32,7.816,7.816,0,0,0,5.863,2.465,9.384,9.384,0,0,0,3.277-.588,8.605,8.605,0,0,0,2.709-1.562A13.29,13.29,0,0,0,154.235-7.324Zm0-5.945a9.427,9.427,0,0,0-1.654-3.632,7.824,7.824,0,0,0-2.871-2.191,8.784,8.784,0,0,0-3.753-.832,8.078,8.078,0,0,0-5.579,2.09,9.447,9.447,0,0,0-2.577,4.565Zm7.345-8.805h2.9v3.226A10.186,10.186,0,0,1,167.22-21.7a5.4,5.4,0,0,1,3-.943,5.181,5.181,0,0,1,2.516.751L171.258-19.5a3.95,3.95,0,0,0-1.5-.385,4.107,4.107,0,0,0-2.739,1.167,7.377,7.377,0,0,0-2.009,3.622,34.729,34.729,0,0,0-.528,7.629V0h-2.9Zm27.552-8.2h2.861v8.2h4.5v2.435h-4.5V0h-2.861V-19.64h-3.875v-2.435h3.875Zm11.605-.325h2.84v12.478a12.073,12.073,0,0,1,3.794-3.4,9.233,9.233,0,0,1,4.484-1.126,7.826,7.826,0,0,1,4.393,1.258,7.5,7.5,0,0,1,2.83,3.378,17.906,17.906,0,0,1,.913,6.645V0h-2.84V-10.53a26.923,26.923,0,0,0-.3-5.092,5.771,5.771,0,0,0-1.917-3.3,5.676,5.676,0,0,0-3.642-1.106,7,7,0,0,0-4.616,1.7,7.985,7.985,0,0,0-2.688,4.22,29.169,29.169,0,0,0-.406,6.005V0h-2.84ZM244.663-7.324l2.394,1.258a13.057,13.057,0,0,1-2.719,3.733,10.8,10.8,0,0,1-3.469,2.161,12.091,12.091,0,0,1-4.362.741,10.537,10.537,0,0,1-8.44-3.54,11.95,11.95,0,0,1-3.043-8,11.808,11.808,0,0,1,2.577-7.487,10.531,10.531,0,0,1,8.744-4.179,10.876,10.876,0,0,1,9.008,4.281,11.959,11.959,0,0,1,2.435,7.547H227.945a9.026,9.026,0,0,0,2.455,6.32,7.816,7.816,0,0,0,5.863,2.465,9.384,9.384,0,0,0,3.277-.588,8.605,8.605,0,0,0,2.709-1.562A13.29,13.29,0,0,0,244.663-7.324Zm0-5.945a9.427,9.427,0,0,0-1.654-3.632,7.824,7.824,0,0,0-2.871-2.191,8.784,8.784,0,0,0-3.753-.832,8.078,8.078,0,0,0-5.579,2.09,9.447,9.447,0,0,0-2.577,4.565Zm19.9-8.805h2.82v3.814a10.993,10.993,0,0,1,3.043-3.084,8.621,8.621,0,0,1,4.524-1.3,7.524,7.524,0,0,1,3.043.629,6.543,6.543,0,0,1,2.353,1.674,8.981,8.981,0,0,1,1.583,2.993,10.493,10.493,0,0,1,3.551-3.946,8.414,8.414,0,0,1,4.585-1.349,7.187,7.187,0,0,1,4.048,1.156,6.9,6.9,0,0,1,2.607,3.226,17.176,17.176,0,0,1,.852,6.208V0h-2.9V-12.052a15.7,15.7,0,0,0-.507-4.879,4.4,4.4,0,0,0-1.735-2.14,5.194,5.194,0,0,0-2.932-.812,6.391,6.391,0,0,0-3.784,1.217,7.007,7.007,0,0,0-2.506,3.246,20.51,20.51,0,0,0-.791,6.776V0H279.6V-11.3a19.39,19.39,0,0,0-.5-5.427,4.545,4.545,0,0,0-1.735-2.293,5.016,5.016,0,0,0-2.942-.862,6.348,6.348,0,0,0-3.682,1.187,7.028,7.028,0,0,0-2.536,3.2,17.225,17.225,0,0,0-.822,6.148V0h-2.82Zm38.63,0h2.861v10.307a22.028,22.028,0,0,0,.406,5.194,5.79,5.79,0,0,0,2.323,3.206,7.046,7.046,0,0,0,4.088,1.177A6.894,6.894,0,0,0,316.9-3.338a5.864,5.864,0,0,0,2.282-3.013,21.307,21.307,0,0,0,.426-5.417V-22.074h2.9V-11.24a17.136,17.136,0,0,1-1.065,6.878A8.136,8.136,0,0,1,318.24-.741,10.128,10.128,0,0,1,312.874.568a10.236,10.236,0,0,1-5.387-1.309,8.07,8.07,0,0,1-3.226-3.652,17.839,17.839,0,0,1-1.065-7.05Zm36.723,2.414-1.826,1.887a6.539,6.539,0,0,0-4.443-2.211,3.353,3.353,0,0,0-2.364.913,2.822,2.822,0,0,0-.984,2.13,3.16,3.16,0,0,0,.812,2.049,11.4,11.4,0,0,0,3.409,2.333,12.727,12.727,0,0,1,4.3,3.165,5.774,5.774,0,0,1,1.116,3.469,6.232,6.232,0,0,1-1.907,4.606A6.505,6.505,0,0,1,333.264.568a8.321,8.321,0,0,1-3.642-.832,7.91,7.91,0,0,1-2.871-2.293l1.785-2.029a6.19,6.19,0,0,0,4.606,2.455,4.143,4.143,0,0,0,2.9-1.1,3.388,3.388,0,0,0,1.2-2.577,3.306,3.306,0,0,0-.791-2.171,12.718,12.718,0,0,0-3.571-2.354,11.445,11.445,0,0,1-4.058-3.043,5.741,5.741,0,0,1-1.075-3.429,5.581,5.581,0,0,1,1.714-4.179,5.967,5.967,0,0,1,4.332-1.664Q336.835-22.642,339.919-19.66Zm6.026-11.5a2.267,2.267,0,0,1,1.664.69,2.267,2.267,0,0,1,.69,1.664,2.244,2.244,0,0,1-.69,1.643,2.267,2.267,0,0,1-1.664.69,2.244,2.244,0,0,1-1.643-.69,2.244,2.244,0,0,1-.69-1.643,2.267,2.267,0,0,1,.69-1.664A2.244,2.244,0,0,1,345.944-31.164Zm-1.42,9.089h2.861V0h-2.861Zm30.169,4.585-2.252,1.4a9.448,9.448,0,0,0-7.973-3.875,9.225,9.225,0,0,0-6.705,2.6,8.476,8.476,0,0,0-2.668,6.31,8.958,8.958,0,0,0,1.227,4.545,8.6,8.6,0,0,0,3.368,3.307,9.793,9.793,0,0,0,4.8,1.177A9.707,9.707,0,0,0,372.441-5.9l2.252,1.481a10.621,10.621,0,0,1-4.251,3.682A13.623,13.623,0,0,1,364.367.568a12,12,0,0,1-8.684-3.327,10.825,10.825,0,0,1-3.449-8.1,11.563,11.563,0,0,1,1.613-5.955A11.363,11.363,0,0,1,358.28-21.1a12.934,12.934,0,0,1,6.31-1.542,13.473,13.473,0,0,1,4.23.67,11.763,11.763,0,0,1,3.459,1.745A9.49,9.49,0,0,1,374.694-17.489Zm17.956-13.675a2.267,2.267,0,0,1,1.664.69A2.267,2.267,0,0,1,395-28.81a2.244,2.244,0,0,1-.69,1.643,2.267,2.267,0,0,1-1.664.69,2.244,2.244,0,0,1-1.643-.69,2.244,2.244,0,0,1-.69-1.643,2.267,2.267,0,0,1,.69-1.664A2.244,2.244,0,0,1,392.649-31.164Zm-1.42,9.089h2.861V0h-2.861Zm8.744,0h2.84v3.956a11.873,11.873,0,0,1,3.774-3.4,9.273,9.273,0,0,1,4.5-1.126,7.826,7.826,0,0,1,4.393,1.258A7.493,7.493,0,0,1,418.314-18a17.917,17.917,0,0,1,.913,6.634V0h-2.82V-10.53a25.274,25.274,0,0,0-.325-5.092,5.653,5.653,0,0,0-1.907-3.3,5.718,5.718,0,0,0-3.652-1.106,7,7,0,0,0-4.616,1.7,7.985,7.985,0,0,0-2.688,4.22,29.351,29.351,0,0,0-.406,6.005V0h-2.84Zm34.471,0h3l7.588,17,7.365-17h3.023L442.255,8.075h-3l4.261-9.739Zm35.1-.568a10.9,10.9,0,0,1,8.44,3.693,11.5,11.5,0,0,1,3.043,7.973,11.5,11.5,0,0,1-3.216,8.085A10.782,10.782,0,0,1,469.544.568a10.805,10.805,0,0,1-8.288-3.459,11.5,11.5,0,0,1-3.216-8.085,11.473,11.473,0,0,1,3.043-7.953A10.9,10.9,0,0,1,469.544-22.642Zm0,2.78a8.152,8.152,0,0,0-6.066,2.617,8.764,8.764,0,0,0-2.536,6.33A9,9,0,0,0,462.1-6.452a8.209,8.209,0,0,0,3.124,3.2,8.549,8.549,0,0,0,4.322,1.126,8.549,8.549,0,0,0,4.322-1.126,8.209,8.209,0,0,0,3.124-3.2,9,9,0,0,0,1.156-4.464,8.746,8.746,0,0,0-2.546-6.33A8.162,8.162,0,0,0,469.544-19.863Zm16.393-2.211H488.8v10.307a22.028,22.028,0,0,0,.406,5.194,5.79,5.79,0,0,0,2.323,3.206,7.046,7.046,0,0,0,4.088,1.177,6.894,6.894,0,0,0,4.027-1.146,5.864,5.864,0,0,0,2.282-3.013,21.307,21.307,0,0,0,.426-5.417V-22.074h2.9V-11.24a17.136,17.136,0,0,1-1.065,6.878,8.136,8.136,0,0,1-3.206,3.622A10.128,10.128,0,0,1,495.615.568a10.236,10.236,0,0,1-5.387-1.309A8.07,8.07,0,0,1,487-4.393a17.839,17.839,0,0,1-1.065-7.05Z" transform="translate(536.609 360.3)"/><path class="c" d="M256.572,178.011l15.436,41.376s3.645-16.508,1.5-24.225S264.5,180.155,256.572,178.011Z" transform="translate(183.74 55.976)"/><path class="d" d="M297.078,361.858l8.958,24.623s-15.819-3.612-14.317-13.476S297.078,361.858,297.078,361.858Z" transform="translate(164.673 -44.048)"/><path class="e" d="M308.095,358.1l12.219,32.587-4.5,1.93-12.219-31.944Z" transform="translate(158.158 -42.002)"/><path class="e" d="M318.4,355.746l12.22,31.3-4.932,2.359-12.219-32.587Z" transform="translate(152.786 -40.723)"/><path class="b" d="M329.17,348.222l-5.361,2.359,12.436,32.372,5.145-4.931,3.216-9.647-.43-9.433-6.218-7.718Z" transform="translate(147.159 -36.629)"/><path class="f" d="M249.281,177.435l14.578,39.017-2.09,8.683-18.6-48.183Z" transform="translate(191.03 56.552)"/><path class="g" d="M237.255,175.189l18.706,47.86-4.5,3.377-18.866-49.308Z" transform="translate(196.787 57.511)"/><path class="h" d="M219.737,179.421l12.22,32.479-11.416,1.769-10.29-7.879-1.287-13.345S215.718,181.351,219.737,179.421Z" transform="translate(209.641 55.208)"/><path class="i" d="M233.672,222.256c9.252-10.208,17.366-17.964,3.872-39.677-.74-1.046-1.791-2.437-3.094-3.966a39.4,39.4,0,0,0-3.918-3.674c-5.6-4.527-12.379-6.957-18.964-5.912a21.483,21.483,0,0,0-15.491,10.828,22.292,22.292,0,0,0-.753,18.857,33.1,33.1,0,0,0,2.862,5.168c.235.3.474.59.725.877A22.147,22.147,0,0,0,203,208.34a21.84,21.84,0,0,0,10.521,3.856c7.13.545,13.652-3.914,16.38-10.818a19.263,19.263,0,0,0,1.273-5.495c.066-.776.253-.206-.345-.864-.505-.548-3.655-7.208-3.376-6.512,1.607,4.02,1.609,7.1,1.394,8.026a15.178,15.178,0,0,1-.748,2.394,10.181,10.181,0,0,1-2.685,3.879c-4.382,3.8-11.23,2.546-15.84-1.5a10.968,10.968,0,0,1-2.186-2.384c-.168-.226-.341-.446-.5-.682l.039-.022a15.612,15.612,0,0,1-1.367-3l-.034.02c-2.507-7.5.137-15.129,5.987-18.8A15.3,15.3,0,0,1,225,175.415c7.039,1.754,10.855,9.406,11.669,11.347a28.09,28.09,0,0,1,1.936,11.1c-1.714,14.364-1.336,25.415-12.22,29.906" transform="translate(218 60.994)"/><path class="i" d="M300.521,281.889A21.485,21.485,0,0,0,289.693,266.4a22.291,22.291,0,0,0-18.858-.752,32.949,32.949,0,0,0-5.168,2.863c-.3.233-.591.473-.877.723a22.24,22.24,0,0,0-3.583,4.093,21.843,21.843,0,0,0-3.857,10.523c-.545,7.129,3.914,13.65,10.818,16.378a19.178,19.178,0,0,0,5.5,1.274c.776.066,1.869.3,2.527-.3a.882.882,0,0,0-.238-1.554c-.882-.292-2.01-.257-2.94-.471a15.121,15.121,0,0,1-2.394-.747,10.206,10.206,0,0,1-3.879-2.685c-3.8-4.383-2.545-11.232,1.5-15.841a11.018,11.018,0,0,1,2.384-2.187c.226-.167.446-.342.682-.495.008.012.015.025.023.037a15.614,15.614,0,0,1,3-1.366.239.239,0,0,1-.02-.034c7.5-2.507,15.129.136,18.8,5.987a15.3,15.3,0,0,1,1.02,13.476c-1.753,7.04-9.406,10.855-11.345,11.67a18.331,18.331,0,0,1-4.459,1.407c-12.432,3.615-26.087-1.241-30.581-12.124-5.6-13.582,8.609-35.427,11.421-40.532s5.259-9.522,6.252-11.847a52.253,52.253,0,0,0,2.4-7.972c1.535-7.243,1.485-14.948-.942-21.718a41.587,41.587,0,0,0-4.719-9.1l-.569,6.15c2.253,9.338-2.086,19.983-7.8,28.291l-.035-.056c-.846,1.478-1.78,3.062-2.757,4.7q-.452.795-.907,1.591c-3.719,6.5-7.424,13.063-10.052,19.941-2.567,6.736-4.06,13.878-2.836,20.7a31.66,31.66,0,0,0,10.094,17.566,33.533,33.533,0,0,0,39.678,3.874c1.045-.742,2.437-1.791,3.964-3.1a39.1,39.1,0,0,0,3.675-3.917C299.136,295.256,301.566,288.476,300.521,281.889Z" transform="translate(194.517 41.234)"/><g transform="translate(424.815 224.775)"><path class="j" d="M248.438,221.451l-24.523-63.644c-.447.028-.89.077-1.333.117l24.981,64.834C247.848,222.323,248.139,221.886,248.438,221.451Z" transform="translate(-222.583 -157.807)"/></g><g transform="translate(430.893 224.684)"><path class="k" d="M259.975,216.481l-22.666-58.827c-.464-.02-.929-.037-1.4-.045l23.134,60.041C259.352,217.258,259.662,216.869,259.975,216.481Z" transform="translate(-235.913 -157.609)"/></g><g transform="translate(435.913 225.069)"><path class="l" d="M269.124,212.491l-20.732-53.808c-.489-.077-.973-.168-1.467-.231l21.237,55.122Q268.643,213.028,269.124,212.491Z" transform="translate(-246.925 -158.452)"/></g><path class="l" d="M222.169,123.191a7.718,7.718,0,1,1-7.718-7.718A7.718,7.718,0,0,1,222.169,123.191Z" transform="translate(210.855 90)"/><path class="l" d="M341.023,238.192,321.8,242.371V265.1a4.8,4.8,0,1,0,2.221,4.046h0V244.16l14.788-3.215V258.63a4.8,4.8,0,1,0,2.219,4.046c0-.061-.008-.123-.008-.183h.008Z" transform="translate(152.277 23.234)"/><path class="l" d="M393.687,264.779v18.248a3.856,3.856,0,1,0,1.782,3.249h0V266.214" transform="translate(112.372 8.769)"/><path class="l" d="M401.948,267.834l-.643-1.286s-1.288-3.215.428-3.215,5.79,5.145,10.292-.215C412.025,263.117,407.094,272.55,401.948,267.834Z" transform="translate(105.249 9.673)"/><path class="l" d="M304.113,367.448a16.081,16.081,0,0,0-1.417,1.882l14.319,35.722a34.281,34.281,0,0,0,3.326-2.078l-14.808-36.953A10.5,10.5,0,0,0,304.113,367.448Z" transform="translate(158.646 -46.313)"/><path class="l" d="M313.515,361.6l14.438,37.1c.714-.578,1.4-1.183,2.058-1.811l-14.141-36.341A15.95,15.95,0,0,0,313.515,361.6Z" transform="translate(152.759 -43.335)"/><path class="l" d="M324.206,358.722l13.576,35.008q.486-.557.946-1.137l-13.22-34.076C325.072,358.569,324.641,358.637,324.206,358.722Z" transform="translate(146.943 -42.231)"/></g></svg>